<?xml version="1.0" encoding="UTF-8" standalone="no"?>
<!-- Created with Inkscape (http://www.inkscape.org/) -->

<svg
   xmlns:dc="http://purl.org/dc/elements/1.1/"
   xmlns:cc="http://creativecommons.org/ns#"
   xmlns:rdf="http://www.w3.org/1999/02/22-rdf-syntax-ns#"
   xmlns:svg="http://www.w3.org/2000/svg"
   xmlns="http://www.w3.org/2000/svg"
   xmlns:sodipodi="http://sodipodi.sourceforge.net/DTD/sodipodi-0.dtd"
   xmlns:inkscape="http://www.inkscape.org/namespaces/inkscape"
   width="135.46666mm"
   height="135.46666mm"
   viewBox="0 0 135.46666 135.46666"
   version="1.1"
   id="svg76"
   inkscape:version="0.92.3 (2405546, 2018-03-11)"
   sodipodi:docname="CNCMachine.svg">
  <defs
     id="defs70" />
  <sodipodi:namedview
     id="base"
     pagecolor="#ffffff"
     bordercolor="#666666"
     borderopacity="1.0"
     inkscape:pageopacity="0.0"
     inkscape:pageshadow="2"
     inkscape:zoom="0.35"
     inkscape:cx="358.85714"
     inkscape:cy="-38.285718"
     inkscape:document-units="mm"
     inkscape:current-layer="layer1"
     showgrid="false"
     fit-margin-top="0"
     fit-margin-left="0"
     fit-margin-right="0"
     fit-margin-bottom="0"
     inkscape:window-width="1920"
     inkscape:window-height="1137"
     inkscape:window-x="1912"
     inkscape:window-y="-8"
     inkscape:window-maximized="1" />
  <metadata
     id="metadata73">
    <rdf:RDF>
      <cc:Work
         rdf:about="">
        <dc:format>image/svg+xml</dc:format>
        <dc:type
           rdf:resource="http://purl.org/dc/dcmitype/StillImage" />
        <dc:title></dc:title>
      </cc:Work>
    </rdf:RDF>
  </metadata>
  <g
     inkscape:label="Layer 1"
     inkscape:groupmode="layer"
     id="layer1"
     transform="translate(-10.885715,-3.2369056)">
    <g
       id="g184"
       transform="matrix(0.26458333,0,0,0.26458333,10.885715,3.2369056)">
      <g
         id="g82">
	<g
   id="g80">
		<path
   id="path78"
   d="m 462,212 h -80 c -5.523,0 -10,4.477 -10,10 v 80 c 0,5.523 4.477,10 10,10 h 80 c 5.523,0 10,-4.477 10,-10 v -80 c 0,-5.523 -4.477,-10 -10,-10 z m -10,80 h -60 v -60 h 60 z"
   inkscape:connector-curvature="0" />

	</g>

</g>
      <g
         id="g88">
	<g
   id="g86">
		<path
   id="path84"
   d="m 462,372 c -5.52,0 -10,4.48 -10,10 0,5.52 4.48,10 10,10 5.52,0 10,-4.48 10,-10 0,-5.52 -4.48,-10 -10,-10 z"
   inkscape:connector-curvature="0" />

	</g>

</g>
      <g
         id="g94">
	<g
   id="g92">
		<path
   id="path90"
   d="m 382,372 c -5.52,0 -10,4.48 -10,10 0,5.52 4.48,10 10,10 5.52,0 10,-4.48 10,-10 0,-5.52 -4.48,-10 -10,-10 z"
   inkscape:connector-curvature="0" />

	</g>

</g>
      <g
         id="g100">
	<g
   id="g98">
		<path
   id="path96"
   d="m 422,372 c -5.52,0 -10,4.48 -10,10 0,5.52 4.48,10 10,10 5.52,0 10,-4.48 10,-10 0,-5.52 -4.48,-10 -10,-10 z"
   inkscape:connector-curvature="0" />

	</g>

</g>
      <g
         id="g106">
	<g
   id="g104">
		<path
   id="path102"
   d="M 502,172 H 472 V 82 c 0,-16.542 -13.458,-30 -30,-30 0,0 -89.982,0 -90,0 1.229,0 -1.996,-16.084 -2.456,-17.495 C 343.016,14.506 323.431,0 302,0 H 50 C 22.43,0 0,22.43 0,50 v 452 c 0,5.523 4.477,10 10,10 h 492 c 5.523,0 10,-4.477 10,-10 V 182 c 0,-5.523 -4.477,-10 -10,-10 z M 392,72 h 50 c 5.514,0 10,4.486 10,10 v 50 h -20 v -30 c 0,-5.523 -4.477,-10 -10,-10 h -30 z m 60,80 v 20 H 432 V 152 Z M 352,72 h 20 v 20 h -20 z m 0,40 h 60 v 60 H 352 Z M 50,20 h 252 c 13.038,0 24.159,8.359 28.287,20 H 21.713 C 25.841,28.359 36.962,20 50,20 Z m 96,157.762 v -22.644 l 60,-45.094 v 22.843 z m 60,-19.915 v 20.011 l -30,30 -15.767,-15.767 z M 146,130.1 V 100 h 40.05 z M 126,80 V 60 H 226 V 80 Z M 20,60 h 86 v 30 c 0,5.523 4.477,10 10,10 h 10 v 82 c 0,2.652 1.054,5.196 2.929,7.071 L 166,226.143 c 0,0 0,35.664 0,35.857 0,12.812 20,13.072 20,10e-4 v -35.857 l 37.071,-37.071 c 1.875,-1.875 2.929,-4.419 2.929,-7.071 v -82 h 10 c 5.523,0 10,-4.477 10,-10 V 60 h 86 v 272 h -36 v -30 c 0,-5.523 -4.477,-10 -10,-10 H 66 c -5.523,0 -10,4.477 -10,10 v 30 H 20 Z m 56,272 v -20 h 200 v 20 z m 130,20 v 60 H 146 V 352 Z M 40,492 H 20 v -20 h 20 z m 452,0 H 352 v -20 h 140 z m 0,-40 H 236 c -5.51,0 -10,4.49 -10,10 0,5.51 4.49,10 10,10 h 96 v 20 H 60 v -20 h 96 c 5.51,0 10,-4.49 10,-10 0,-5.51 -4.49,-10 -10,-10 H 20 V 352 h 106 v 70 c 0,5.523 4.477,10 10,10 h 80 c 5.523,0 10,-4.477 10,-10 v -70 h 106 v 70 c 0,5.523 4.477,10 10,10 h 150 z m 0,-40 H 352 v -60 h 140 z m 0,-80 H 352 V 192 h 140 z"
   inkscape:connector-curvature="0" />

	</g>

</g>
      <g
         id="g112">
	<g
   id="g110">
		<path
   id="path108"
   d="m 196,452 c -5.51,0 -10,4.49 -10,10 0,5.51 4.49,10 10,10 5.51,0 10,-4.49 10,-10 0,-5.51 -4.49,-10 -10,-10 z"
   inkscape:connector-curvature="0" />

	</g>

</g>
      <g
         id="g114">
</g>
      <g
         id="g116">
</g>
      <g
         id="g118">
</g>
      <g
         id="g120">
</g>
      <g
         id="g122">
</g>
      <g
         id="g124">
</g>
      <g
         id="g126">
</g>
      <g
         id="g128">
</g>
      <g
         id="g130">
</g>
      <g
         id="g132">
</g>
      <g
         id="g134">
</g>
      <g
         id="g136">
</g>
      <g
         id="g138">
</g>
      <g
         id="g140">
</g>
      <g
         id="g142">
</g>
    </g>
  </g>
</svg>
