<?xml version="1.0" encoding="UTF-8" standalone="no"?>
<!-- Generator: Adobe Illustrator 19.0.0, SVG Export Plug-In . SVG Version: 6.00 Build 0)  -->

<svg
   xmlns:dc="http://purl.org/dc/elements/1.1/"
   xmlns:cc="http://creativecommons.org/ns#"
   xmlns:rdf="http://www.w3.org/1999/02/22-rdf-syntax-ns#"
   xmlns:svg="http://www.w3.org/2000/svg"
   xmlns="http://www.w3.org/2000/svg"
   xmlns:sodipodi="http://sodipodi.sourceforge.net/DTD/sodipodi-0.dtd"
   xmlns:inkscape="http://www.inkscape.org/namespaces/inkscape"
   version="1.1"
   id="Capa_1"
   x="0px"
   y="0px"
   viewBox="0 0 512.00128 511.99625"
   xml:space="preserve"
   sodipodi:docname="Delivery.svg"
   inkscape:version="0.92.3 (2405546, 2018-03-11)"
   width="512.00128"
   height="511.99625"><metadata
   id="metadata128"><rdf:RDF><cc:Work
       rdf:about=""><dc:format>image/svg+xml</dc:format><dc:type
         rdf:resource="http://purl.org/dc/dcmitype/StillImage" /><dc:title></dc:title></cc:Work></rdf:RDF></metadata><defs
   id="defs126" /><sodipodi:namedview
   pagecolor="#ffffff"
   bordercolor="#666666"
   borderopacity="1"
   objecttolerance="10"
   gridtolerance="10"
   guidetolerance="10"
   inkscape:pageopacity="0"
   inkscape:pageshadow="2"
   inkscape:window-width="640"
   inkscape:window-height="480"
   id="namedview124"
   showgrid="false"
   inkscape:zoom="0.4609375"
   inkscape:cx="256.00046"
   inkscape:cy="255.99825"
   inkscape:window-x="229"
   inkscape:window-y="86"
   inkscape:window-maximized="0"
   inkscape:current-layer="Capa_1"
   fit-margin-top="0"
   fit-margin-left="0"
   fit-margin-right="0"
   fit-margin-bottom="0" />
<g
   id="g67"
   transform="translate(4.5554055e-4,-0.002)">
	<g
   id="g65">
		<path
   d="m 155.999,370.002 c -5.52,0 -10,4.48 -10,10 0,5.52 4.48,10 10,10 5.52,0 10,-4.48 10,-10 0,-5.52 -4.48,-10 -10,-10 z"
   id="path63"
   inkscape:connector-curvature="0" />
	</g>
</g>
<g
   id="g73"
   transform="translate(4.5554055e-4,-0.002)">
	<g
   id="g71">
		<path
   d="m 450.143,190.001 58.929,-58.929 c 2.479,-2.479 3.478,-6.075 2.635,-9.477 -0.843,-3.403 -3.407,-6.115 -6.757,-7.149 L 361.45,70.156 C 348.514,28.575 310.066,0.002 265.999,0.002 c -40.964,0 -77.6,24.965 -92.763,62.625 L 7.022,114.455 c -3.341,1.042 -5.895,3.756 -6.732,7.155 -0.837,3.398 0.163,6.988 2.638,9.463 l 60.479,60.479 -38.144,63.575 c -1.561,2.601 -1.856,5.77 -0.804,8.615 1.052,2.845 3.339,5.058 6.217,6.017 l 55.323,18.44 v 153.802 c 0,4.168 2.586,7.899 6.489,9.363 33.827,12.684 159.512,59.822 160.187,60.061 1.984,0.699 4.219,0.794 6.398,0.089 0.029,-0.01 0.059,-0.016 0.088,-0.026 l 180,-60 c 4.083,-1.361 6.838,-5.183 6.838,-9.487 v -157.92 l 58.998,-18.54 c 3.336,-1.048 5.882,-3.762 6.715,-7.158 0.832,-3.396 -0.169,-6.98 -2.641,-9.453 z m -84.144,-89.999 c 0,-2.541 -0.107,-5.076 -0.298,-7.603 l 117.494,36.265 -49.897,49.896 -81.528,-27.173 c 9.232,-15.431 14.229,-33.237 14.229,-51.385 z M 190.326,73.974 c 11.101,-32.282 41.512,-53.972 75.673,-53.972 36.801,0 68.719,24.892 77.618,60.532 1.581,6.333 2.382,12.883 2.382,19.468 0,18.574 -6.164,35.983 -17.828,50.352 -15.277,18.842 -37.938,29.648 -62.172,29.648 -26.196,0 -50.767,-12.858 -65.733,-34.404 -9.333,-13.406 -14.267,-29.174 -14.267,-45.596 0,-8.931 1.455,-17.688 4.327,-26.028 z m -161.562,54.651 138.3,-43.124 c -0.694,4.778 -1.065,9.618 -1.065,14.5 0,16.101 3.814,31.696 11.084,45.767 L 78.7,178.56 Z m 20.063,126.102 31.62,-52.702 160.563,53.521 -31.619,52.702 C 192.246,302.533 67.133,260.828 48.827,254.727 Z m 197.172,232.845 -140,-52.5 V 294.866 c 110.15,36.522 104.771,35.407 107.838,35.407 3.438,0 6.73,-1.779 8.577,-4.856 l 23.585,-39.311 z m 10,-248.111 -148.376,-49.458 80.794,-26.93 c 18.91,23.247 47.377,36.929 77.582,36.929 27.942,0 54.203,-11.499 73.092,-31.759 l 65.284,21.759 z m 170,195.333 -160,53.333 v -209.62 l 35.451,44.31 c 2.579,3.223 6.872,4.529 10.807,3.293 l 113.742,-35.743 z m -113.208,-129.815 -40.024,-50.026 160.531,-53.51 49.964,49.964 z"
   id="path69"
   inkscape:connector-curvature="0" />
	</g>
</g>
<g
   id="g79"
   transform="translate(4.5554055e-4,-0.002)">
	<g
   id="g77">
		<path
   d="m 219.511,392.198 -22.24,-8.34 c -5.171,-1.938 -10.935,0.681 -12.875,5.852 -1.939,5.172 0.681,10.936 5.852,12.875 l 22.24,8.34 c 5.182,1.942 10.939,-0.69 12.875,-5.852 1.939,-5.171 -0.681,-10.936 -5.852,-12.875 z"
   id="path75"
   inkscape:connector-curvature="0" />
	</g>
</g>
<g
   id="g85"
   transform="translate(4.5554055e-4,-0.002)">
	<g
   id="g83">
		<path
   d="m 219.51,434.918 -60,-22.5 c -5.171,-1.939 -10.935,0.681 -12.875,5.852 -1.94,5.171 0.681,10.936 5.852,12.875 l 60,22.5 c 1.157,0.434 2.343,0.64 3.51,0.64 4.049,0 7.859,-2.477 9.365,-6.492 1.94,-5.172 -0.68,-10.936 -5.852,-12.875 z"
   id="path81"
   inkscape:connector-curvature="0" />
	</g>
</g>
<g
   id="g91"
   transform="translate(4.5554055e-4,-0.002)">
	<g
   id="g89">
		<path
   d="m 323.071,62.93 c -3.905,-3.906 -10.237,-3.905 -14.143,0 l -52.929,52.93 -12.929,-12.929 c -3.905,-3.905 -10.237,-3.905 -14.143,0 -3.906,3.905 -3.905,10.237 0,14.143 l 20.001,19.999 c 3.905,3.905 10.237,3.905 14.143,0 l 60,-60 c 3.905,-3.905 3.905,-10.237 0,-14.143 z"
   id="path87"
   inkscape:connector-curvature="0" />
	</g>
</g>
<g
   id="g93"
   transform="translate(4.5554055e-4,-0.002)">
</g>
<g
   id="g95"
   transform="translate(4.5554055e-4,-0.002)">
</g>
<g
   id="g97"
   transform="translate(4.5554055e-4,-0.002)">
</g>
<g
   id="g99"
   transform="translate(4.5554055e-4,-0.002)">
</g>
<g
   id="g101"
   transform="translate(4.5554055e-4,-0.002)">
</g>
<g
   id="g103"
   transform="translate(4.5554055e-4,-0.002)">
</g>
<g
   id="g105"
   transform="translate(4.5554055e-4,-0.002)">
</g>
<g
   id="g107"
   transform="translate(4.5554055e-4,-0.002)">
</g>
<g
   id="g109"
   transform="translate(4.5554055e-4,-0.002)">
</g>
<g
   id="g111"
   transform="translate(4.5554055e-4,-0.002)">
</g>
<g
   id="g113"
   transform="translate(4.5554055e-4,-0.002)">
</g>
<g
   id="g115"
   transform="translate(4.5554055e-4,-0.002)">
</g>
<g
   id="g117"
   transform="translate(4.5554055e-4,-0.002)">
</g>
<g
   id="g119"
   transform="translate(4.5554055e-4,-0.002)">
</g>
<g
   id="g121"
   transform="translate(4.5554055e-4,-0.002)">
</g>
</svg>