<?xml version="1.0" encoding="UTF-8" standalone="no"?>
<!-- Created with Inkscape (http://www.inkscape.org/) -->

<svg
   xmlns:dc="http://purl.org/dc/elements/1.1/"
   xmlns:cc="http://creativecommons.org/ns#"
   xmlns:rdf="http://www.w3.org/1999/02/22-rdf-syntax-ns#"
   xmlns:svg="http://www.w3.org/2000/svg"
   xmlns="http://www.w3.org/2000/svg"
   xmlns:xlink="http://www.w3.org/1999/xlink"
   xmlns:sodipodi="http://sodipodi.sourceforge.net/DTD/sodipodi-0.dtd"
   xmlns:inkscape="http://www.inkscape.org/namespaces/inkscape"
   width="120.311mm"
   height="59.54641mm"
   viewBox="0 0 120.311 59.54641"
   version="1.1"
   id="svg8"
   inkscape:version="0.92.3 (2405546, 2018-03-11)"
   sodipodi:docname="exception.svg">
  <defs
     id="defs2">
    <g
       id="g977">
      <symbol
         id="glyph0-0"
         overflow="visible"
         style="overflow:visible">
        <path
           id="path815"
           d=""
           style="stroke:none"
           inkscape:connector-curvature="0" />
      </symbol>
      <symbol
         id="glyph0-1"
         overflow="visible"
         style="overflow:visible">
        <path
           id="path818"
           d="m 1.875,-17.578125 c 0.082031,-1.488281 0.410156,-2.894531 0.984375,-4.21875 0.570313,-1.320313 1.382813,-2.46875 2.4375,-3.4375 1.0625,-0.976563 2.34375,-1.753906 3.84375,-2.328125 1.507813,-0.570313 3.253906,-0.859375 5.234375,-0.859375 1.945313,0 3.679688,0.289062 5.203125,0.859375 1.519531,0.574219 2.804688,1.351562 3.859375,2.328125 1.050781,0.96875 1.863281,2.117187 2.4375,3.4375 0.570313,1.324219 0.898438,2.730469 0.984375,4.21875 0.05078,1.148437 0.07813,2.351562 0.07813,3.609375 0,1.25 -0.02734,2.421875 -0.07813,3.515625 -0.08594,1.5 -0.414062,2.914062 -0.984375,4.234375 -0.574219,1.3125 -1.386719,2.464844 -2.4375,3.453125 C 22.382813,-1.773438 21.097656,-1 19.578125,-0.4375 18.054688,0.125 16.320313,0.40625 14.375,0.40625 12.394531,0.40625 10.648438,0.125 9.140625,-0.4375 7.640625,-1 6.359375,-1.773438 5.296875,-2.765625 4.242188,-3.753906 3.429688,-4.90625 2.859375,-6.21875 2.285156,-7.539063 1.957031,-8.953125 1.875,-10.453125 1.820313,-11.546875 1.796875,-12.71875 1.796875,-13.96875 c 0,-1.257813 0.023438,-2.460938 0.078125,-3.609375 z m 17.578125,6.9375 c 0.03125,-0.488281 0.05469,-1.023438 0.07813,-1.609375 0.03125,-0.582031 0.04687,-1.179688 0.04687,-1.796875 0,-0.613281 -0.01563,-1.207031 -0.04687,-1.78125 -0.02344,-0.570313 -0.04687,-1.085938 -0.07813,-1.546875 -0.05469,-0.664063 -0.195312,-1.28125 -0.421875,-1.84375 -0.230469,-0.5625 -0.554687,-1.046875 -0.96875,-1.453125 -0.40625,-0.414063 -0.917969,-0.742188 -1.53125,-0.984375 -0.617187,-0.238281 -1.335937,-0.359375 -2.15625,-0.359375 -0.835937,0 -1.558594,0.121094 -2.171875,0.359375 -0.617187,0.242187 -1.132812,0.570312 -1.546875,0.984375 -0.40625,0.40625 -0.726562,0.890625 -0.953125,1.453125 -0.21875,0.5625 -0.359375,1.179687 -0.421875,1.84375 -0.054687,0.460937 -0.085937,0.976562 -0.09375,1.546875 -0.011719,0.574219 -0.015625,1.167969 -0.015625,1.78125 0,0.617187 0.00391,1.214844 0.015625,1.796875 0.00781,0.585937 0.039063,1.121094 0.09375,1.609375 0.113281,1.335937 0.578125,2.445312 1.390625,3.328125 C 11.484375,-6.4375 12.71875,-6 14.375,-6 c 1.65625,0 2.878906,-0.4375 3.671875,-1.3125 0.800781,-0.882813 1.269531,-1.992188 1.40625,-3.328125 z m 0,0"
           style="stroke:none"
           inkscape:connector-curvature="0" />
      </symbol>
      <symbol
         id="glyph0-2"
         overflow="visible"
         style="overflow:visible">
        <path
           id="path821"
           d="m 15.328125,-28.015625 c 1.707031,0 3.242188,0.195312 4.609375,0.578125 1.363281,0.386719 2.523438,0.976562 3.484375,1.765625 0.957031,0.78125 1.695313,1.761719 2.21875,2.9375 0.519531,1.179687 0.78125,2.539062 0.78125,4.078125 0,1.574219 -0.261719,2.949219 -0.78125,4.125 -0.523437,1.179687 -1.261719,2.152344 -2.21875,2.921875 C 22.460938,-10.835938 21.300781,-10.25 19.9375,-9.84375 18.570313,-9.445313 17.035156,-9.25 15.328125,-9.25 h -5.125 v 8.171875 c 0,0.292969 -0.109375,0.546875 -0.328125,0.765625 C 9.664063,-0.101563 9.414063,0 9.125,0 H 3.890625 c -0.304687,0 -0.5625,-0.101563 -0.78125,-0.3125 -0.210937,-0.21875 -0.3125,-0.472656 -0.3125,-0.765625 V -26.9375 c 0,-0.289063 0.101563,-0.539063 0.3125,-0.75 0.21875,-0.21875 0.476563,-0.328125 0.78125,-0.328125 z m -5.125,12.53125 H 15.125 c 1.125,0 2.050781,-0.242188 2.78125,-0.734375 0.738281,-0.5 1.109375,-1.3125 1.109375,-2.4375 0,-1.113281 -0.371094,-1.914063 -1.109375,-2.40625 -0.730469,-0.5 -1.65625,-0.75 -2.78125,-0.75 h -4.921875 z m 0,0"
           style="stroke:none"
           inkscape:connector-curvature="0" />
      </symbol>
      <symbol
         id="glyph0-3"
         overflow="visible"
         style="overflow:visible">
        <path
           id="path824"
           d="m 13.203125,-28.421875 c 1.707031,0 3.273438,0.25 4.703125,0.75 1.4375,0.492187 2.671875,1.121094 3.703125,1.890625 1.039063,0.773437 1.851563,1.625 2.4375,2.5625 0.59375,0.9375 0.90625,1.835937 0.9375,2.6875 0,0.242187 -0.08984,0.449219 -0.265625,0.625 -0.179687,0.167969 -0.371094,0.25 -0.578125,0.25 h -5.25 c -0.375,0 -0.679687,-0.05078 -0.90625,-0.15625 -0.21875,-0.101563 -0.449219,-0.265625 -0.6875,-0.484375 -0.08594,-0.08203 -0.214844,-0.210938 -0.390625,-0.390625 -0.167969,-0.1875 -0.414062,-0.378906 -0.734375,-0.578125 -0.324219,-0.207031 -0.726562,-0.382813 -1.203125,-0.53125 -0.480469,-0.144531 -1.070312,-0.21875 -1.765625,-0.21875 -0.5,0 -0.984375,0.03906 -1.453125,0.109375 -0.46875,0.0625 -0.886719,0.167969 -1.25,0.3125 -0.355469,0.148437 -0.648437,0.355469 -0.875,0.625 -0.230469,0.261719 -0.34375,0.59375 -0.34375,1 0,0.398437 0.125,0.730469 0.375,1 0.257813,0.261719 0.6875,0.507812 1.28125,0.734375 0.601563,0.230469 1.398438,0.453125 2.390625,0.671875 0.988281,0.210937 2.21875,0.460937 3.6875,0.75 1.46875,0.292969 2.75,0.667969 3.84375,1.125 1.09375,0.449219 2.003906,1.015625 2.734375,1.703125 0.738281,0.679687 1.285156,1.480469 1.640625,2.40625 0.363281,0.917969 0.546875,2 0.546875,3.25 0,1.367187 -0.308594,2.585937 -0.921875,3.65625 -0.617187,1.0625 -1.480469,1.976562 -2.59375,2.734375 -1.105469,0.761719 -2.414062,1.34375 -3.921875,1.75 -1.5,0.394531 -3.148437,0.59375 -4.9375,0.59375 -1.8125,0 -3.46875,-0.242187 -4.96875,-0.71875 C 6.945313,-0.800781 5.660156,-1.4375 4.578125,-2.21875 3.503906,-3.007813 2.660156,-3.894531 2.046875,-4.875 c -0.617187,-0.988281 -0.9375,-1.992188 -0.96875,-3.015625 0,-0.238281 0.082031,-0.441406 0.25,-0.609375 0.175781,-0.175781 0.375,-0.265625 0.59375,-0.265625 h 5.25 c 0.363281,0 0.648438,0.046875 0.859375,0.140625 0.21875,0.09375 0.4375,0.234375 0.65625,0.421875 0.101563,0.105469 0.257813,0.277344 0.46875,0.515625 0.21875,0.242187 0.503906,0.492187 0.859375,0.75 0.363281,0.25 0.816406,0.46875 1.359375,0.65625 C 11.925781,-6.09375 12.601563,-6 13.40625,-6 c 1.414063,0 2.597656,-0.148438 3.546875,-0.453125 0.945313,-0.3125 1.421875,-0.867188 1.421875,-1.671875 0,-0.40625 -0.179687,-0.738281 -0.53125,-1 -0.34375,-0.269531 -0.867187,-0.515625 -1.5625,-0.734375 -0.6875,-0.226563 -1.574219,-0.445313 -2.65625,-0.65625 -1.074219,-0.21875 -2.34375,-0.488281 -3.8125,-0.8125 -2.75,-0.582031 -4.761719,-1.5625 -6.03125,-2.9375 -1.273437,-1.375 -1.90625,-3.210938 -1.90625,-5.515625 0,-1.144531 0.257813,-2.238281 0.78125,-3.28125 0.519531,-1.039063 1.273438,-1.957031 2.265625,-2.75 0.988281,-0.800781 2.179688,-1.4375 3.578125,-1.90625 1.40625,-0.46875 2.972656,-0.703125 4.703125,-0.703125 z m 0,0"
           style="stroke:none"
           inkscape:connector-curvature="0" />
      </symbol>
      <symbol
         id="glyph0-4"
         overflow="visible"
         style="overflow:visible">
        <path
           id="path827"
           d="M 9.453125,-1.078125 C 9.453125,-0.785156 9.34375,-0.53125 9.125,-0.3125 8.914063,-0.101563 8.660156,0 8.359375,0 H 3.125 C 2.832031,0 2.578125,-0.101563 2.359375,-0.3125 2.148438,-0.53125 2.046875,-0.785156 2.046875,-1.078125 v -5.25 c 0,-0.289063 0.101563,-0.539063 0.3125,-0.75 C 2.578125,-7.296875 2.832031,-7.40625 3.125,-7.40625 h 5.234375 c 0.300781,0 0.554688,0.109375 0.765625,0.328125 0.21875,0.210937 0.328125,0.460937 0.328125,0.75 z m 0,0"
           style="stroke:none"
           inkscape:connector-curvature="0" />
      </symbol>
      <symbol
         id="glyph1-0"
         overflow="visible"
         style="overflow:visible">
        <path
           id="path830"
           d=""
           style="stroke:none"
           inkscape:connector-curvature="0" />
      </symbol>
      <symbol
         id="glyph1-1"
         overflow="visible"
         style="overflow:visible">
        <path
           id="path833"
           d="m 6.6875,-9.234375 c 0.195313,0 0.296875,0.105469 0.296875,0.3125 v 0.1875 c 0,0.199219 -0.101562,0.296875 -0.296875,0.296875 H 4.09375 v 8.140625 C 4.09375,-0.0976563 3.988281,0 3.78125,0 H 3.546875 C 3.347656,0 3.25,-0.0976563 3.25,-0.296875 V -8.4375 H 0.640625 c -0.1875,0 -0.28125,-0.097656 -0.28125,-0.296875 v -0.1875 c 0,-0.207031 0.09375,-0.3125 0.28125,-0.3125 z m 0,0"
           style="stroke:none"
           inkscape:connector-curvature="0" />
      </symbol>
      <symbol
         id="glyph1-2"
         overflow="visible"
         style="overflow:visible">
        <path
           id="path836"
           d="M 1.890625,-5.953125 C 2.117188,-6.253906 2.398438,-6.5 2.734375,-6.6875 3.078125,-6.882813 3.53125,-6.984375 4.09375,-6.984375 c 0.457031,0 0.851563,0.074219 1.1875,0.21875 0.332031,0.148437 0.609375,0.355469 0.828125,0.625 0.226563,0.261719 0.398438,0.574219 0.515625,0.9375 0.113281,0.355469 0.171875,0.746094 0.171875,1.171875 v 3.734375 C 6.796875,-0.0976563 6.695313,0 6.5,0 H 6.28125 C 6.082031,0 5.984375,-0.0976563 5.984375,-0.296875 V -3.96875 C 5.984375,-4.675781 5.8125,-5.226563 5.46875,-5.625 5.125,-6.019531 4.625,-6.21875 3.96875,-6.21875 c -0.636719,0 -1.140625,0.199219 -1.515625,0.59375 -0.375,0.398437 -0.5625,0.949219 -0.5625,1.65625 v 3.671875 C 1.890625,-0.0976563 1.789063,0 1.59375,0 H 1.375 C 1.175781,0 1.078125,-0.0976563 1.078125,-0.296875 v -8.78125 c 0,-0.1875 0.097656,-0.28125 0.296875,-0.28125 h 0.21875 c 0.195313,0 0.296875,0.09375 0.296875,0.28125 z m 0,0"
           style="stroke:none"
           inkscape:connector-curvature="0" />
      </symbol>
      <symbol
         id="glyph1-3"
         overflow="visible"
         style="overflow:visible">
        <path
           id="path839"
           d="M 0.71875,-3.953125 C 0.757813,-4.398438 0.851563,-4.8125 1,-5.1875 c 0.144531,-0.375 0.335938,-0.691406 0.578125,-0.953125 0.238281,-0.269531 0.53125,-0.476563 0.875,-0.625 0.34375,-0.144531 0.726563,-0.21875 1.15625,-0.21875 0.925781,0 1.644531,0.304687 2.15625,0.90625 0.507813,0.59375 0.765625,1.421875 0.765625,2.484375 v 0.203125 c 0,0.09375 -0.03125,0.167969 -0.09375,0.21875 -0.054687,0.054687 -0.125,0.078125 -0.21875,0.078125 h -4.6875 v 0.125 c 0.00781,0.304687 0.0625,0.59375 0.15625,0.875 0.101563,0.28125 0.242188,0.53125 0.421875,0.75 C 2.285156,-1.132813 2.5,-0.960938 2.75,-0.828125 c 0.257813,0.125 0.546875,0.1875 0.859375,0.1875 0.28125,0 0.523438,-0.03125 0.734375,-0.09375 0.21875,-0.070313 0.398438,-0.15625 0.546875,-0.25 0.144531,-0.09375 0.265625,-0.1875 0.359375,-0.28125 0.09375,-0.09375 0.160156,-0.164063 0.203125,-0.21875 C 5.523438,-1.597656 5.582031,-1.664063 5.625,-1.6875 5.675781,-1.71875 5.75,-1.734375 5.84375,-1.734375 h 0.203125 c 0.082031,0 0.148438,0.027344 0.203125,0.078125 0.0625,0.054687 0.085938,0.117187 0.078125,0.1875 C 6.316406,-1.34375 6.25,-1.1875 6.125,-1 6,-0.8125 5.816406,-0.632813 5.578125,-0.46875 5.347656,-0.300781 5.066406,-0.160156 4.734375,-0.046875 4.398438,0.0664063 4.023438,0.125 3.609375,0.125 3.191406,0.125 2.8125,0.0546875 2.46875,-0.078125 2.125,-0.222656 1.828125,-0.429688 1.578125,-0.703125 1.335938,-0.972656 1.144531,-1.296875 1,-1.671875 0.851563,-2.046875 0.757813,-2.457031 0.71875,-2.90625 c 0,-0.125 0,-0.296875 0,-0.515625 0,-0.226563 0,-0.40625 0,-0.53125 z m 0.8125,0.109375 h 4.1875 v -0.046875 c 0,-0.320313 -0.046875,-0.625 -0.140625,-0.90625 -0.09375,-0.289063 -0.234375,-0.539063 -0.421875,-0.75 -0.179687,-0.21875 -0.402344,-0.382813 -0.671875,-0.5 -0.261719,-0.113281 -0.554687,-0.171875 -0.875,-0.171875 -0.335937,0 -0.632812,0.058594 -0.890625,0.171875 -0.25,0.117187 -0.464844,0.28125 -0.640625,0.5 -0.179687,0.210937 -0.3125,0.460937 -0.40625,0.75 -0.09375,0.28125 -0.140625,0.585937 -0.140625,0.90625 z m 0,0"
           style="stroke:none"
           inkscape:connector-curvature="0" />
      </symbol>
      <symbol
         id="glyph1-4"
         overflow="visible"
         style="overflow:visible">
        <path
           id="path842"
           d=""
           style="stroke:none"
           inkscape:connector-curvature="0" />
      </symbol>
      <symbol
         id="glyph1-5"
         overflow="visible"
         style="overflow:visible">
        <path
           id="path845"
           d="M 1.890625,-0.296875 C 1.890625,-0.0976563 1.789063,0 1.59375,0 H 1.375 C 1.175781,0 1.078125,-0.0976563 1.078125,-0.296875 v -8.78125 c 0,-0.1875 0.097656,-0.28125 0.296875,-0.28125 h 0.21875 c 0.195313,0 0.296875,0.09375 0.296875,0.28125 z m 0,0"
           style="stroke:none"
           inkscape:connector-curvature="0" />
      </symbol>
      <symbol
         id="glyph1-6"
         overflow="visible"
         style="overflow:visible">
        <path
           id="path848"
           d="m 2.015625,-8.5625 c 0,0.09375 -0.03125,0.167969 -0.09375,0.21875 -0.054687,0.054687 -0.121094,0.078125 -0.203125,0.078125 h -0.5 c -0.199219,0 -0.296875,-0.097656 -0.296875,-0.296875 v -0.5 c 0,-0.082031 0.023438,-0.148438 0.078125,-0.203125 0.050781,-0.0625 0.125,-0.09375 0.21875,-0.09375 h 0.5 c 0.082031,0 0.148438,0.03125 0.203125,0.09375 0.0625,0.054687 0.09375,0.121094 0.09375,0.203125 z M 1.875,-0.296875 C 1.875,-0.0976563 1.773438,0 1.578125,0 H 1.359375 C 1.160156,0 1.0625,-0.0976563 1.0625,-0.296875 V -6.5625 c 0,-0.195313 0.097656,-0.296875 0.296875,-0.296875 h 0.21875 c 0.195313,0 0.296875,0.101562 0.296875,0.296875 z m 0,0"
           style="stroke:none"
           inkscape:connector-curvature="0" />
      </symbol>
      <symbol
         id="glyph1-7"
         overflow="visible"
         style="overflow:visible">
        <path
           id="path851"
           d="M 6.78125,-0.296875 C 6.78125,-0.0976563 6.679688,0 6.484375,0 H 6.265625 C 6.066406,0 5.96875,-0.0976563 5.96875,-0.296875 V -3.96875 c 0,-0.707031 -0.171875,-1.257813 -0.515625,-1.65625 -0.34375,-0.394531 -0.84375,-0.59375 -1.5,-0.59375 -0.636719,0 -1.140625,0.199219 -1.515625,0.59375 -0.375,0.398437 -0.5625,0.949219 -0.5625,1.65625 v 3.671875 C 1.875,-0.0976563 1.773438,0 1.578125,0 H 1.359375 C 1.160156,0 1.0625,-0.0976563 1.0625,-0.296875 V -6.5625 c 0,-0.195313 0.097656,-0.296875 0.296875,-0.296875 h 0.21875 c 0.195313,0 0.296875,0.101562 0.296875,0.296875 v 0.609375 C 2.113281,-6.253906 2.398438,-6.5 2.734375,-6.6875 3.066406,-6.882813 3.519531,-6.984375 4.09375,-6.984375 c 0.445313,0 0.835938,0.074219 1.171875,0.21875 0.332031,0.148437 0.609375,0.355469 0.828125,0.625 0.226563,0.261719 0.398438,0.574219 0.515625,0.9375 0.113281,0.355469 0.171875,0.746094 0.171875,1.171875 z m 0,0"
           style="stroke:none"
           inkscape:connector-curvature="0" />
      </symbol>
      <symbol
         id="glyph1-8"
         overflow="visible"
         style="overflow:visible">
        <path
           id="path854"
           d="m 2.390625,-3.796875 3.65625,3.265625 C 6.160156,-0.425781 6.21875,-0.335938 6.21875,-0.265625 6.21875,-0.0859375 6.128906,0 5.953125,0 H 5.75 C 5.613281,0 5.515625,-0.0078125 5.453125,-0.03125 c -0.054687,-0.0195313 -0.136719,-0.082031 -0.25,-0.1875 l -3.3125,-2.953125 v 2.875 C 1.890625,-0.0976563 1.789063,0 1.59375,0 H 1.375 C 1.175781,0 1.078125,-0.0976563 1.078125,-0.296875 v -8.78125 c 0,-0.1875 0.097656,-0.28125 0.296875,-0.28125 h 0.21875 c 0.195313,0 0.296875,0.09375 0.296875,0.28125 v 4.671875 l 2.9375,-2.234375 C 4.953125,-6.734375 5.039063,-6.789063 5.09375,-6.8125 5.15625,-6.84375 5.25,-6.859375 5.375,-6.859375 h 0.25 c 0.175781,0 0.265625,0.089844 0.265625,0.265625 0,0.03125 -0.011719,0.074219 -0.03125,0.125 -0.023437,0.054687 -0.070312,0.101562 -0.140625,0.140625 z m 0,0"
           style="stroke:none"
           inkscape:connector-curvature="0" />
      </symbol>
      <symbol
         id="glyph1-9"
         overflow="visible"
         style="overflow:visible">
        <path
           id="path857"
           d="M 2.796875,2.3125 C 2.765625,2.363281 2.726563,2.40625 2.6875,2.4375 2.644531,2.476563 2.582031,2.5 2.5,2.5 H 2.234375 C 2.160156,2.5 2.097656,2.472656 2.046875,2.421875 1.992188,2.367188 1.96875,2.304688 1.96875,2.234375 c 0,-0.042969 0.023438,-0.125 0.078125,-0.25 l 1.015625,-2.375 -2.515625,-5.9375 C 0.492188,-6.460938 0.46875,-6.550781 0.46875,-6.59375 c 0,-0.070313 0.023438,-0.132813 0.078125,-0.1875 C 0.597656,-6.832031 0.65625,-6.859375 0.71875,-6.859375 H 1 c 0.09375,0 0.160156,0.023437 0.203125,0.0625 0.039063,0.042969 0.078125,0.089844 0.109375,0.140625 l 2.203125,5.21875 2.28125,-5.21875 C 5.816406,-6.707031 5.847656,-6.753906 5.890625,-6.796875 5.929688,-6.835938 6,-6.859375 6.09375,-6.859375 h 0.265625 c 0.070313,0 0.132813,0.027344 0.1875,0.078125 0.050781,0.054687 0.078125,0.117187 0.078125,0.1875 0,0.042969 -0.027344,0.132812 -0.078125,0.265625 z m 0,0"
           style="stroke:none"
           inkscape:connector-curvature="0" />
      </symbol>
      <symbol
         id="glyph1-10"
         overflow="visible"
         style="overflow:visible">
        <path
           id="path860"
           d="m 3.671875,-6.984375 c 0.476563,0 0.894531,0.078125 1.25,0.234375 0.363281,0.148437 0.664063,0.355469 0.90625,0.625 0.25,0.273437 0.4375,0.59375 0.5625,0.96875 0.125,0.367187 0.195313,0.757812 0.21875,1.171875 0,0.074219 0,0.15625 0,0.25 0.00781,0.09375 0.015625,0.199219 0.015625,0.3125 0,0.105469 -0.00781,0.210937 -0.015625,0.3125 0,0.09375 0,0.171875 0,0.234375 -0.023437,0.429687 -0.09375,0.824219 -0.21875,1.1875 -0.125,0.367187 -0.3125,0.683594 -0.5625,0.953125 C 5.585938,-0.460938 5.285156,-0.25 4.921875,-0.09375 4.566406,0.0507813 4.148438,0.125 3.671875,0.125 c -0.46875,0 -0.886719,-0.0742187 -1.25,-0.21875 C 2.066406,-0.25 1.765625,-0.460938 1.515625,-0.734375 1.273438,-1.003906 1.085938,-1.320313 0.953125,-1.6875 0.828125,-2.050781 0.757813,-2.445313 0.75,-2.875 c 0,-0.0625 -0.007812,-0.140625 -0.015625,-0.234375 0,-0.101563 0,-0.207031 0,-0.3125 0,-0.113281 0,-0.21875 0,-0.3125 0.007813,-0.09375 0.015625,-0.175781 0.015625,-0.25 0.007813,-0.414063 0.078125,-0.804688 0.203125,-1.171875 0.132813,-0.375 0.320313,-0.695313 0.5625,-0.96875 0.25,-0.269531 0.550781,-0.476563 0.90625,-0.625 0.363281,-0.15625 0.78125,-0.234375 1.25,-0.234375 z m 2.125,3.0625 C 5.773438,-4.671875 5.570313,-5.238281 5.1875,-5.625 4.800781,-6.019531 4.296875,-6.21875 3.671875,-6.21875 c -0.617187,0 -1.117187,0.199219 -1.5,0.59375 -0.386719,0.386719 -0.589844,0.953125 -0.609375,1.703125 -0.011719,0.136719 -0.015625,0.304687 -0.015625,0.5 0,0.1875 0.00391,0.351562 0.015625,0.484375 0.019531,0.75 0.222656,1.324219 0.609375,1.71875 0.382813,0.386719 0.882813,0.578125 1.5,0.578125 0.625,0 1.128906,-0.191406 1.515625,-0.578125 C 5.570313,-1.613281 5.773438,-2.1875 5.796875,-2.9375 5.804688,-3.070313 5.8125,-3.234375 5.8125,-3.421875 c 0,-0.195313 -0.00781,-0.363281 -0.015625,-0.5 z m 0,0"
           style="stroke:none"
           inkscape:connector-curvature="0" />
      </symbol>
      <symbol
         id="glyph1-11"
         overflow="visible"
         style="overflow:visible">
        <path
           id="path863"
           d="m 1,-6.5625 c 0,-0.195313 0.097656,-0.296875 0.296875,-0.296875 h 0.21875 c 0.195313,0 0.296875,0.101562 0.296875,0.296875 v 3.671875 c 0,1.5 0.648438,2.25 1.953125,2.25 0.632813,0 1.140625,-0.191406 1.515625,-0.578125 0.375,-0.394531 0.5625,-0.953125 0.5625,-1.671875 V -6.5625 c 0,-0.195313 0.09375,-0.296875 0.28125,-0.296875 h 0.234375 c 0.1875,0 0.28125,0.101562 0.28125,0.296875 v 6.265625 C 6.640625,-0.0976563 6.546875,0 6.359375,0 H 6.125 C 5.9375,0 5.84375,-0.0976563 5.84375,-0.296875 V -0.90625 c -0.242187,0.304687 -0.527344,0.554687 -0.859375,0.75 C 4.648438,0.03125 4.203125,0.125 3.640625,0.125 3.191406,0.125 2.800781,0.0507813 2.46875,-0.09375 2.144531,-0.238281 1.867188,-0.441406 1.640625,-0.703125 1.421875,-0.972656 1.257813,-1.285156 1.15625,-1.640625 1.050781,-2.003906 1,-2.398438 1,-2.828125 Z m 0,0"
           style="stroke:none"
           inkscape:connector-curvature="0" />
      </symbol>
      <symbol
         id="glyph1-12"
         overflow="visible"
         style="overflow:visible">
        <path
           id="path866"
           d="m 2.515625,-6.859375 h 1.75 c 0.1875,0 0.28125,0.101562 0.28125,0.296875 v 0.1875 c 0,0.1875 -0.09375,0.28125 -0.28125,0.28125 h -1.75 v 5.796875 C 2.515625,-0.0976563 2.421875,0 2.234375,0 H 2 C 1.8125,0 1.71875,-0.0976563 1.71875,-0.296875 V -6.09375 H 0.546875 C 0.347656,-6.09375 0.25,-6.1875 0.25,-6.375 v -0.1875 c 0,-0.195313 0.097656,-0.296875 0.296875,-0.296875 H 1.71875 v -0.75 c 0,-0.289063 0.023438,-0.566406 0.078125,-0.828125 0.0625,-0.257813 0.164063,-0.488281 0.3125,-0.6875 0.144531,-0.195313 0.34375,-0.351563 0.59375,-0.46875 0.257813,-0.113281 0.59375,-0.171875 1,-0.171875 h 0.6875 c 0.195313,0 0.296875,0.101562 0.296875,0.296875 v 0.1875 C 4.6875,-9.09375 4.585938,-9 4.390625,-9 h -0.6875 C 3.234375,-9 2.914063,-8.867188 2.75,-8.609375 c -0.15625,0.25 -0.234375,0.605469 -0.234375,1.0625 z m 0,0"
           style="stroke:none"
           inkscape:connector-curvature="0" />
      </symbol>
      <symbol
         id="glyph1-13"
         overflow="visible"
         style="overflow:visible">
        <path
           id="path869"
           d="m 7.390625,-1.171875 1.625,-5.484375 c 0.00781,-0.039063 0.035156,-0.082031 0.078125,-0.125 0.050781,-0.050781 0.125,-0.078125 0.21875,-0.078125 h 0.25 c 0.070313,0 0.132813,0.027344 0.1875,0.078125 0.050781,0.054687 0.078125,0.117187 0.078125,0.1875 0,0.042969 -0.011719,0.089844 -0.03125,0.140625 l -1.859375,6.125 c -0.042969,0.117187 -0.09375,0.199219 -0.15625,0.25 C 7.726563,-0.0234375 7.640625,0 7.515625,0 H 7.296875 C 7.054688,0 6.90625,-0.109375 6.84375,-0.328125 L 5.1875,-5.53125 3.515625,-0.328125 C 3.453125,-0.109375 3.304688,0 3.078125,0 H 2.84375 c -0.125,0 -0.214844,-0.0234375 -0.265625,-0.078125 -0.054687,-0.050781 -0.105469,-0.132813 -0.15625,-0.25 L 0.5625,-6.453125 C 0.550781,-6.503906 0.546875,-6.550781 0.546875,-6.59375 c 0,-0.070313 0.023438,-0.132813 0.078125,-0.1875 0.050781,-0.050781 0.109375,-0.078125 0.171875,-0.078125 H 1.0625 c 0.082031,0 0.144531,0.027344 0.1875,0.078125 0.050781,0.042969 0.082031,0.085937 0.09375,0.125 l 1.625,5.484375 1.71875,-5.421875 c 0.019531,-0.050781 0.054688,-0.109375 0.109375,-0.171875 0.050781,-0.0625 0.132813,-0.09375 0.25,-0.09375 H 5.3125 c 0.113281,0 0.195313,0.03125 0.25,0.09375 0.050781,0.0625 0.085938,0.121094 0.109375,0.171875 z m 0,0"
           style="stroke:none"
           inkscape:connector-curvature="0" />
      </symbol>
      <symbol
         id="glyph1-14"
         overflow="visible"
         style="overflow:visible">
        <path
           id="path872"
           d="m 3.546875,-6.984375 c 0.550781,0 1.003906,0.105469 1.359375,0.3125 0.351563,0.199219 0.640625,0.4375 0.859375,0.71875 v -3.125 c 0,-0.1875 0.09375,-0.28125 0.28125,-0.28125 H 6.28125 c 0.1875,0 0.28125,0.09375 0.28125,0.28125 v 8.78125 C 6.5625,-0.0976563 6.46875,0 6.28125,0 H 6.046875 c -0.1875,0 -0.28125,-0.0976563 -0.28125,-0.296875 V -0.90625 C 5.546875,-0.613281 5.257813,-0.367188 4.90625,-0.171875 4.550781,0.0234375 4.097656,0.125 3.546875,0.125 c -0.523437,0 -0.960937,-0.09375 -1.3125,-0.28125 -0.34375,-0.1875 -0.625,-0.429688 -0.84375,-0.734375 -0.21875,-0.300781 -0.386719,-0.640625 -0.5,-1.015625 C 0.785156,-2.289063 0.726563,-2.675781 0.71875,-3.0625 c 0,-0.238281 0,-0.484375 0,-0.734375 0.007813,-0.382813 0.066406,-0.765625 0.171875,-1.140625 0.113281,-0.382813 0.28125,-0.726563 0.5,-1.03125 0.21875,-0.300781 0.5,-0.546875 0.84375,-0.734375 0.351563,-0.1875 0.789063,-0.28125 1.3125,-0.28125 z m 2.21875,4.03125 c 0.00781,-0.132813 0.015625,-0.304688 0.015625,-0.515625 0,-0.207031 -0.00781,-0.378906 -0.015625,-0.515625 C 5.753906,-4.242188 5.707031,-4.507813 5.625,-4.78125 5.539063,-5.050781 5.410156,-5.289063 5.234375,-5.5 5.054688,-5.707031 4.835938,-5.878906 4.578125,-6.015625 4.316406,-6.148438 4,-6.21875 3.625,-6.21875 c -0.386719,0 -0.710937,0.070312 -0.96875,0.203125 -0.261719,0.136719 -0.476562,0.320312 -0.640625,0.546875 -0.15625,0.21875 -0.277344,0.476562 -0.359375,0.765625 -0.074219,0.292969 -0.117187,0.59375 -0.125,0.90625 -0.011719,0.25 -0.011719,0.496094 0,0.734375 0.00781,0.324219 0.050781,0.632812 0.125,0.921875 0.082031,0.292969 0.203125,0.554687 0.359375,0.78125 0.164063,0.21875 0.378906,0.398437 0.640625,0.53125 0.257813,0.125 0.582031,0.1875 0.96875,0.1875 0.375,0 0.691406,-0.066406 0.953125,-0.203125 0.269531,-0.144531 0.488281,-0.328125 0.65625,-0.546875 0.175781,-0.226563 0.304688,-0.476563 0.390625,-0.75 0.082031,-0.269531 0.128906,-0.539063 0.140625,-0.8125 z m 0,0"
           style="stroke:none"
           inkscape:connector-curvature="0" />
      </symbol>
      <symbol
         id="glyph1-15"
         overflow="visible"
         style="overflow:visible">
        <path
           id="path875"
           d="m 4.09375,0.125 c -0.554687,0 -1.007812,-0.1015625 -1.359375,-0.296875 -0.34375,-0.195313 -0.625,-0.441406 -0.84375,-0.734375 v 3.125 C 1.890625,2.40625 1.789063,2.5 1.59375,2.5 H 1.375 C 1.175781,2.5 1.078125,2.40625 1.078125,2.21875 V -6.5625 c 0,-0.195313 0.097656,-0.296875 0.296875,-0.296875 h 0.21875 c 0.195313,0 0.296875,0.101562 0.296875,0.296875 v 0.609375 c 0.21875,-0.289063 0.5,-0.535156 0.84375,-0.734375 0.351563,-0.195313 0.804688,-0.296875 1.359375,-0.296875 0.507813,0 0.941406,0.089844 1.296875,0.265625 0.363281,0.179687 0.65625,0.417969 0.875,0.71875 0.21875,0.292969 0.375,0.625 0.46875,1 0.101563,0.375 0.164063,0.757812 0.1875,1.140625 0.00781,0.125 0.015625,0.273437 0.015625,0.4375 0,0.15625 -0.00781,0.296875 -0.015625,0.421875 -0.023437,0.398437 -0.085937,0.78125 -0.1875,1.15625 -0.09375,0.367187 -0.25,0.699219 -0.46875,1 -0.21875,0.292969 -0.511719,0.527344 -0.875,0.703125 C 5.035156,0.0351563 4.601563,0.125 4.09375,0.125 Z M 1.890625,-3.90625 C 1.878906,-3.769531 1.875,-3.597656 1.875,-3.390625 c 0,0.210937 0.00391,0.382812 0.015625,0.515625 0.00781,0.261719 0.054688,0.527344 0.140625,0.796875 0.082031,0.273437 0.207031,0.511719 0.375,0.71875 0.175781,0.210937 0.394531,0.382812 0.65625,0.515625 0.269531,0.136719 0.585938,0.203125 0.953125,0.203125 0.394531,0 0.71875,-0.0625 0.96875,-0.1875 0.257813,-0.132813 0.472656,-0.3125 0.640625,-0.53125 0.164063,-0.226563 0.285156,-0.488281 0.359375,-0.78125 C 6.054688,-2.429688 6.101563,-2.738281 6.125,-3.0625 c 0,-0.238281 0,-0.484375 0,-0.734375 C 6.101563,-4.109375 6.054688,-4.410156 5.984375,-4.703125 5.910156,-4.992188 5.789063,-5.25 5.625,-5.46875 5.457031,-5.695313 5.242188,-5.878906 4.984375,-6.015625 c -0.25,-0.132813 -0.574219,-0.203125 -0.96875,-0.203125 -0.375,0 -0.699219,0.074219 -0.96875,0.21875 -0.261719,0.136719 -0.476562,0.320312 -0.640625,0.546875 -0.167969,0.21875 -0.292969,0.464844 -0.375,0.734375 -0.085937,0.273437 -0.132812,0.542969 -0.140625,0.8125 z m 0,0"
           style="stroke:none"
           inkscape:connector-curvature="0" />
      </symbol>
      <symbol
         id="glyph1-16"
         overflow="visible"
         style="overflow:visible">
        <path
           id="path878"
           d="m 1.875,-5.953125 c 0.3125,-0.601563 0.910156,-0.90625 1.796875,-0.90625 H 4.15625 c 0.1875,0 0.28125,0.101562 0.28125,0.296875 v 0.1875 c 0,0.1875 -0.09375,0.28125 -0.28125,0.28125 H 3.59375 C 3.0625,-6.09375 2.640625,-5.9375 2.328125,-5.625 2.023438,-5.320313 1.875,-4.90625 1.875,-4.375 v 4.078125 c 0,0.09375 -0.03125,0.167969 -0.09375,0.21875 C 1.726563,-0.0234375 1.65625,0 1.5625,0 H 1.359375 C 1.160156,0 1.0625,-0.0976563 1.0625,-0.296875 v -6.25 c 0,-0.09375 0.023438,-0.164063 0.078125,-0.21875 0.050781,-0.0625 0.125,-0.09375 0.21875,-0.09375 H 1.5625 c 0.09375,0 0.164063,0.03125 0.21875,0.09375 0.0625,0.054687 0.09375,0.125 0.09375,0.21875 z m 0,0"
           style="stroke:none"
           inkscape:connector-curvature="0" />
      </symbol>
      <symbol
         id="glyph1-17"
         overflow="visible"
         style="overflow:visible">
        <path
           id="path881"
           d="m 4.09375,-6.984375 c 0.507813,0 0.941406,0.09375 1.296875,0.28125 0.363281,0.1875 0.65625,0.433594 0.875,0.734375 0.21875,0.304687 0.375,0.648437 0.46875,1.03125 0.101563,0.375 0.164063,0.757812 0.1875,1.140625 0.00781,0.25 0.00781,0.496094 0,0.734375 -0.023437,0.386719 -0.085937,0.773437 -0.1875,1.15625 -0.09375,0.375 -0.25,0.714844 -0.46875,1.015625 -0.21875,0.304687 -0.511719,0.546875 -0.875,0.734375 C 5.035156,0.03125 4.601563,0.125 4.09375,0.125 3.539063,0.125 3.085938,0.0234375 2.734375,-0.171875 2.390625,-0.367188 2.109375,-0.613281 1.890625,-0.90625 v 0.609375 C 1.890625,-0.0976563 1.789063,0 1.59375,0 H 1.375 C 1.175781,0 1.078125,-0.0976563 1.078125,-0.296875 v -8.78125 c 0,-0.1875 0.097656,-0.28125 0.296875,-0.28125 h 0.21875 c 0.195313,0 0.296875,0.09375 0.296875,0.28125 v 3.125 c 0.21875,-0.28125 0.5,-0.519531 0.84375,-0.71875 0.351563,-0.207031 0.804688,-0.3125 1.359375,-0.3125 z m -2.203125,4.03125 c 0.00781,0.273437 0.054688,0.542969 0.140625,0.8125 0.082031,0.273437 0.207031,0.523437 0.375,0.75 0.164063,0.21875 0.378906,0.402344 0.640625,0.546875 0.269531,0.136719 0.59375,0.203125 0.96875,0.203125 0.394531,0 0.71875,-0.0625 0.96875,-0.1875 0.257813,-0.132813 0.472656,-0.3125 0.640625,-0.53125 0.164063,-0.226563 0.285156,-0.488281 0.359375,-0.78125 C 6.054688,-2.429688 6.101563,-2.738281 6.125,-3.0625 c 0,-0.238281 0,-0.484375 0,-0.734375 C 6.101563,-4.109375 6.054688,-4.410156 5.984375,-4.703125 5.910156,-4.992188 5.789063,-5.25 5.625,-5.46875 5.457031,-5.695313 5.242188,-5.878906 4.984375,-6.015625 4.734375,-6.148438 4.410156,-6.21875 4.015625,-6.21875 3.648438,-6.21875 3.332031,-6.148438 3.0625,-6.015625 2.800781,-5.878906 2.582031,-5.707031 2.40625,-5.5 2.238281,-5.289063 2.113281,-5.050781 2.03125,-4.78125 1.945313,-4.507813 1.898438,-4.242188 1.890625,-3.984375 1.878906,-3.847656 1.875,-3.675781 1.875,-3.46875 c 0,0.210937 0.00391,0.382812 0.015625,0.515625 z m 0,0"
           style="stroke:none"
           inkscape:connector-curvature="0" />
      </symbol>
      <symbol
         id="glyph1-18"
         overflow="visible"
         style="overflow:visible">
        <path
           id="path884"
           d="M 5.53125,0 C 5.34375,0 5.25,-0.0976563 5.25,-0.296875 V -0.90625 c -0.085937,0.125 -0.1875,0.25 -0.3125,0.375 -0.125,0.117187 -0.28125,0.226562 -0.46875,0.328125 C 4.28125,-0.109375 4.054688,-0.03125 3.796875,0.03125 3.546875,0.09375 3.253906,0.125 2.921875,0.125 2.597656,0.125 2.289063,0.078125 2,-0.015625 1.71875,-0.117188 1.46875,-0.257813 1.25,-0.4375 1.039063,-0.613281 0.867188,-0.816406 0.734375,-1.046875 c -0.125,-0.238281 -0.1875,-0.5 -0.1875,-0.78125 0,-0.300781 0.0625,-0.570313 0.1875,-0.8125 0.132813,-0.238281 0.316406,-0.445313 0.546875,-0.625 0.226563,-0.175781 0.5,-0.320313 0.8125,-0.4375 0.320313,-0.125 0.679688,-0.210938 1.078125,-0.265625 L 5.25,-4.265625 V -4.71875 C 5.25,-5.195313 5.101563,-5.566406 4.8125,-5.828125 4.53125,-6.085938 4.078125,-6.21875 3.453125,-6.21875 c -0.492187,0 -0.871094,0.09375 -1.140625,0.28125 -0.273437,0.1875 -0.4375,0.390625 -0.5,0.609375 -0.042969,0.105469 -0.089844,0.179687 -0.140625,0.21875 -0.042969,0.042969 -0.105469,0.0625 -0.1875,0.0625 H 1.3125 c -0.085937,0 -0.15625,-0.023438 -0.21875,-0.078125 -0.054687,-0.0625 -0.078125,-0.132813 -0.078125,-0.21875 0,-0.125 0.039063,-0.273438 0.125,-0.453125 0.09375,-0.1875 0.238281,-0.367188 0.4375,-0.546875 0.195313,-0.175781 0.445313,-0.328125 0.75,-0.453125 0.3125,-0.125 0.6875,-0.1875 1.125,-0.1875 0.519531,0 0.945313,0.074219 1.28125,0.21875 0.34375,0.136719 0.609375,0.320312 0.796875,0.546875 C 5.726563,-6 5.863281,-5.753906 5.9375,-5.484375 6.007813,-5.210938 6.046875,-4.945313 6.046875,-4.6875 v 4.390625 C 6.046875,-0.0976563 5.953125,0 5.765625,0 Z M 3.046875,-0.640625 c 0.300781,0 0.582031,-0.046875 0.84375,-0.140625 C 4.160156,-0.882813 4.394531,-1.035156 4.59375,-1.234375 4.800781,-1.441406 4.960938,-1.695313 5.078125,-2 5.191406,-2.3125 5.25,-2.671875 5.25,-3.078125 V -3.53125 l -1.703125,0.234375 c -1.460937,0.199219 -2.1875,0.664062 -2.1875,1.390625 0,0.230469 0.046875,0.421875 0.140625,0.578125 0.101563,0.15625 0.234375,0.289062 0.390625,0.390625 0.164063,0.105469 0.347656,0.183594 0.546875,0.234375 0.207031,0.042969 0.410156,0.0625 0.609375,0.0625 z m 0,0"
           style="stroke:none"
           inkscape:connector-curvature="0" />
      </symbol>
      <symbol
         id="glyph1-19"
         overflow="visible"
         style="overflow:visible">
        <path
           id="path887"
           d="m 2.390625,-2.25 c 0,0.46875 0.070313,0.835937 0.21875,1.09375 0.15625,0.261719 0.429688,0.390625 0.828125,0.390625 h 0.71875 c 0.1875,0 0.28125,0.101562 0.28125,0.296875 v 0.171875 C 4.4375,-0.0976563 4.34375,0 4.15625,0 H 3.375 C 3.03125,0 2.738281,-0.0546875 2.5,-0.171875 2.269531,-0.285156 2.085938,-0.441406 1.953125,-0.640625 1.816406,-0.835938 1.71875,-1.066406 1.65625,-1.328125 1.601563,-1.597656 1.578125,-1.890625 1.578125,-2.203125 V -6.09375 h -1.03125 c -0.1875,0 -0.28125,-0.09375 -0.28125,-0.28125 v -0.1875 c 0,-0.195313 0.09375,-0.296875 0.28125,-0.296875 h 1.03125 v -2.21875 c 0,-0.1875 0.097656,-0.28125 0.296875,-0.28125 h 0.21875 c 0.195313,0 0.296875,0.09375 0.296875,0.28125 v 2.21875 h 1.625 c 0.195313,0 0.296875,0.101562 0.296875,0.296875 v 0.1875 c 0,0.1875 -0.101562,0.28125 -0.296875,0.28125 h -1.625 z m 0,0"
           style="stroke:none"
           inkscape:connector-curvature="0" />
      </symbol>
      <symbol
         id="glyph1-20"
         overflow="visible"
         style="overflow:visible">
        <path
           id="path890"
           d="M 0.734375,-3.796875 C 0.742188,-4.179688 0.800781,-4.5625 0.90625,-4.9375 1.007813,-5.320313 1.171875,-5.664063 1.390625,-5.96875 1.617188,-6.269531 1.90625,-6.515625 2.25,-6.703125 c 0.351563,-0.1875 0.789063,-0.28125 1.3125,-0.28125 0.539063,0 0.988281,0.105469 1.34375,0.3125 0.363281,0.199219 0.65625,0.4375 0.875,0.71875 v -0.59375 c 0,-0.09375 0.023438,-0.164063 0.078125,-0.21875 0.050781,-0.0625 0.117188,-0.09375 0.203125,-0.09375 h 0.21875 c 0.082031,0 0.148438,0.03125 0.203125,0.09375 0.0625,0.054687 0.09375,0.125 0.09375,0.21875 V -0.125 c 0,0.414063 -0.046875,0.804688 -0.140625,1.171875 -0.085937,0.375 -0.242187,0.695313 -0.46875,0.96875 C 5.75,2.285156 5.453125,2.5 5.078125,2.65625 4.703125,2.820313 4.21875,2.90625 3.625,2.90625 3.0625,2.90625 2.601563,2.828125 2.25,2.671875 1.90625,2.515625 1.628906,2.332031 1.421875,2.125 1.210938,1.914063 1.070313,1.703125 1,1.484375 0.925781,1.265625 0.882813,1.09375 0.875,0.96875 0.863281,0.875 0.890625,0.796875 0.953125,0.734375 1.015625,0.679688 1.082031,0.65625 1.15625,0.65625 h 0.1875 c 0.070313,0 0.128906,0.015625 0.171875,0.046875 C 1.566406,0.734375 1.613281,0.8125 1.65625,0.9375 1.695313,1.039063 1.753906,1.160156 1.828125,1.296875 1.898438,1.429688 2.003906,1.5625 2.140625,1.6875 c 0.144531,0.132813 0.332031,0.242188 0.5625,0.328125 0.226563,0.082031 0.515625,0.125 0.859375,0.125 0.351563,0 0.671875,-0.039062 0.953125,-0.109375 C 4.796875,1.96875 5.023438,1.851563 5.203125,1.6875 5.390625,1.53125 5.53125,1.316406 5.625,1.046875 5.726563,0.773438 5.78125,0.425781 5.78125,0 V -0.90625 C 5.5625,-0.613281 5.269531,-0.367188 4.90625,-0.171875 4.550781,0.0234375 4.101563,0.125 3.5625,0.125 3.039063,0.125 2.601563,0.03125 2.25,-0.15625 1.90625,-0.34375 1.617188,-0.585938 1.390625,-0.890625 1.171875,-1.191406 1.007813,-1.53125 0.90625,-1.90625 0.800781,-2.289063 0.742188,-2.675781 0.734375,-3.0625 c -0.011719,-0.238281 -0.011719,-0.484375 0,-0.734375 z M 5.78125,-3.90625 C 5.757813,-4.175781 5.707031,-4.445313 5.625,-4.71875 5.550781,-4.988281 5.425781,-5.234375 5.25,-5.453125 5.082031,-5.679688 4.863281,-5.863281 4.59375,-6 4.332031,-6.144531 4.015625,-6.21875 3.640625,-6.21875 c -0.386719,0 -0.714844,0.070312 -0.984375,0.203125 -0.261719,0.136719 -0.476562,0.320312 -0.640625,0.546875 -0.15625,0.21875 -0.273437,0.476562 -0.34375,0.765625 -0.074219,0.292969 -0.117187,0.59375 -0.125,0.90625 -0.011719,0.25 -0.011719,0.496094 0,0.734375 0.00781,0.324219 0.050781,0.632812 0.125,0.921875 0.070313,0.292969 0.1875,0.554687 0.34375,0.78125 0.164063,0.21875 0.378906,0.398437 0.640625,0.53125 0.269531,0.125 0.597656,0.1875 0.984375,0.1875 0.375,0 0.691406,-0.066406 0.953125,-0.203125 0.269531,-0.144531 0.488281,-0.328125 0.65625,-0.546875 0.175781,-0.226563 0.300781,-0.476563 0.375,-0.75 0.082031,-0.269531 0.132813,-0.539063 0.15625,-0.8125 0.00781,-0.132813 0.015625,-0.289063 0.015625,-0.46875 0,-0.1875 -0.00781,-0.347656 -0.015625,-0.484375 z m 0,0"
           style="stroke:none"
           inkscape:connector-curvature="0" />
      </symbol>
      <symbol
         id="glyph1-21"
         overflow="visible"
         style="overflow:visible">
        <path
           id="path893"
           d="m 5.0625,-1.828125 c 0,-0.1875 -0.039062,-0.34375 -0.109375,-0.46875 C 4.878906,-2.421875 4.753906,-2.53125 4.578125,-2.625 4.410156,-2.726563 4.179688,-2.820313 3.890625,-2.90625 3.609375,-2.988281 3.257813,-3.078125 2.84375,-3.171875 2.425781,-3.273438 2.082031,-3.390625 1.8125,-3.515625 1.550781,-3.640625 1.34375,-3.78125 1.1875,-3.9375 1.039063,-4.101563 0.941406,-4.28125 0.890625,-4.46875 0.835938,-4.664063 0.8125,-4.867188 0.8125,-5.078125 c 0,-0.226563 0.046875,-0.457031 0.140625,-0.6875 0.101563,-0.226563 0.253906,-0.429688 0.453125,-0.609375 0.195313,-0.175781 0.441406,-0.320313 0.734375,-0.4375 0.289063,-0.113281 0.632813,-0.171875 1.03125,-0.171875 0.4375,0 0.804688,0.058594 1.109375,0.171875 0.300781,0.117187 0.546875,0.25 0.734375,0.40625 0.195313,0.15625 0.34375,0.320312 0.4375,0.484375 0.09375,0.15625 0.144531,0.289062 0.15625,0.390625 C 5.617188,-5.445313 5.59375,-5.378906 5.53125,-5.328125 5.46875,-5.273438 5.394531,-5.25 5.3125,-5.25 H 5.109375 C 4.992188,-5.25 4.898438,-5.304688 4.828125,-5.421875 4.753906,-5.523438 4.675781,-5.625 4.59375,-5.71875 4.519531,-5.820313 4.421875,-5.910156 4.296875,-5.984375 4.171875,-6.054688 4.019531,-6.113281 3.84375,-6.15625 3.664063,-6.195313 3.441406,-6.21875 3.171875,-6.21875 2.648438,-6.21875 2.257813,-6.109375 2,-5.890625 c -0.25,0.210937 -0.375,0.480469 -0.375,0.8125 0,0.148437 0.023438,0.277344 0.078125,0.390625 0.050781,0.117187 0.148438,0.226562 0.296875,0.328125 0.15625,0.105469 0.359375,0.203125 0.609375,0.296875 0.257813,0.085937 0.601563,0.171875 1.03125,0.265625 0.414063,0.09375 0.765625,0.203125 1.046875,0.328125 0.289063,0.125 0.519531,0.265625 0.6875,0.421875 0.175781,0.15625 0.300781,0.339844 0.375,0.546875 0.082031,0.199219 0.125,0.421875 0.125,0.671875 0,0.261719 -0.058594,0.511719 -0.171875,0.75 -0.117187,0.242187 -0.289062,0.449219 -0.515625,0.625 C 4.96875,-0.273438 4.695313,-0.132813 4.375,-0.03125 4.050781,0.0703125 3.675781,0.125 3.25,0.125 2.78125,0.125 2.378906,0.0664063 2.046875,-0.046875 1.722656,-0.171875 1.457031,-0.316406 1.25,-0.484375 1.039063,-0.648438 0.882813,-0.816406 0.78125,-0.984375 0.6875,-1.160156 0.632813,-1.296875 0.625,-1.390625 0.613281,-1.484375 0.640625,-1.550781 0.703125,-1.59375 0.773438,-1.644531 0.84375,-1.671875 0.90625,-1.671875 h 0.203125 c 0.050781,0 0.097656,0.011719 0.140625,0.03125 0.039063,0.011719 0.085938,0.058594 0.140625,0.140625 0.082031,0.117187 0.175781,0.226562 0.28125,0.328125 0.101563,0.105469 0.226563,0.199219 0.375,0.28125 0.144531,0.074219 0.3125,0.136719 0.5,0.1875 0.195313,0.042969 0.429688,0.0625 0.703125,0.0625 0.519531,0 0.953125,-0.097656 1.296875,-0.296875 C 4.890625,-1.132813 5.0625,-1.429688 5.0625,-1.828125 Z m 0,0"
           style="stroke:none"
           inkscape:connector-curvature="0" />
      </symbol>
      <symbol
         id="glyph1-22"
         overflow="visible"
         style="overflow:visible">
        <path
           id="path896"
           d="M 1.875,-6.109375 C 2.09375,-6.390625 2.347656,-6.601563 2.640625,-6.75 c 0.300781,-0.15625 0.675781,-0.234375 1.125,-0.234375 0.5,0 0.921875,0.105469 1.265625,0.3125 C 5.382813,-6.460938 5.664063,-6.15625 5.875,-5.75 6.070313,-6.125 6.363281,-6.421875 6.75,-6.640625 c 0.394531,-0.226563 0.847656,-0.34375 1.359375,-0.34375 0.351563,0 0.675781,0.0625 0.96875,0.1875 0.300781,0.117187 0.5625,0.292969 0.78125,0.53125 0.21875,0.242187 0.390625,0.539062 0.515625,0.890625 0.132813,0.355469 0.203125,0.773437 0.203125,1.25 v 3.828125 C 10.578125,-0.0976563 10.476563,0 10.28125,0 H 10.0625 C 9.863281,0 9.765625,-0.0976563 9.765625,-0.296875 V -4 C 9.765625,-4.425781 9.71875,-4.78125 9.625,-5.0625 9.53125,-5.351563 9.398438,-5.582031 9.234375,-5.75 9.066406,-5.925781 8.875,-6.046875 8.65625,-6.109375 8.4375,-6.179688 8.210938,-6.21875 7.984375,-6.21875 c -0.210937,0 -0.417969,0.039062 -0.625,0.109375 C 7.160156,-6.046875 6.972656,-5.925781 6.796875,-5.75 6.628906,-5.582031 6.488281,-5.351563 6.375,-5.0625 6.269531,-4.78125 6.21875,-4.425781 6.21875,-4 v 3.703125 C 6.21875,-0.0976563 6.125,0 5.9375,0 H 5.703125 c -0.1875,0 -0.28125,-0.0976563 -0.28125,-0.296875 V -4 c 0,-0.425781 -0.054687,-0.78125 -0.15625,-1.0625 C 5.160156,-5.351563 5.023438,-5.582031 4.859375,-5.75 4.691406,-5.925781 4.5,-6.046875 4.28125,-6.109375 4.0625,-6.179688 3.84375,-6.21875 3.625,-6.21875 c -0.199219,0 -0.402344,0.039062 -0.609375,0.109375 C 2.804688,-6.046875 2.613281,-5.925781 2.4375,-5.75 2.269531,-5.582031 2.132813,-5.359375 2.03125,-5.078125 1.925781,-4.796875 1.875,-4.441406 1.875,-4.015625 v 3.71875 C 1.875,-0.0976563 1.773438,0 1.578125,0 H 1.359375 C 1.160156,0 1.0625,-0.0976563 1.0625,-0.296875 V -6.5625 c 0,-0.195313 0.097656,-0.296875 0.296875,-0.296875 h 0.21875 c 0.195313,0 0.296875,0.101562 0.296875,0.296875 z m 0,0"
           style="stroke:none"
           inkscape:connector-curvature="0" />
      </symbol>
      <symbol
         id="glyph1-23"
         overflow="visible"
         style="overflow:visible">
        <path
           id="path899"
           d="M 3.421875,0 C 3.285156,0 3.179688,-0.03125 3.109375,-0.09375 3.035156,-0.15625 2.972656,-0.234375 2.921875,-0.328125 L 0.5,-6.453125 C 0.476563,-6.503906 0.46875,-6.550781 0.46875,-6.59375 c 0,-0.070313 0.023438,-0.132813 0.078125,-0.1875 0.0625,-0.050781 0.125,-0.078125 0.1875,-0.078125 h 0.28125 c 0.082031,0 0.144531,0.027344 0.1875,0.078125 0.050781,0.042969 0.085938,0.085937 0.109375,0.125 l 2.21875,5.6875 2.234375,-5.6875 c 0.019531,-0.039063 0.050781,-0.082031 0.09375,-0.125 0.039063,-0.050781 0.101563,-0.078125 0.1875,-0.078125 h 0.28125 c 0.070313,0 0.132813,0.027344 0.1875,0.078125 0.050781,0.054687 0.078125,0.117187 0.078125,0.1875 0,0.042969 -0.011719,0.089844 -0.03125,0.140625 l -2.421875,6.125 C 4.097656,-0.234375 4.035156,-0.15625 3.953125,-0.09375 3.878906,-0.03125 3.773438,0 3.640625,0 Z m 0,0"
           style="stroke:none"
           inkscape:connector-curvature="0" />
      </symbol>
      <symbol
         id="glyph1-24"
         overflow="visible"
         style="overflow:visible">
        <path
           id="path902"
           d="m 2.1875,-0.296875 c 0,0.09375 -0.03125,0.167969 -0.09375,0.21875 C 2.039063,-0.0234375 1.972656,0 1.890625,0 H 1.25 C 1.0625,0 0.96875,-0.0976563 0.96875,-0.296875 v -0.625 c 0,-0.09375 0.023438,-0.164063 0.078125,-0.21875 C 1.097656,-1.191406 1.164063,-1.21875 1.25,-1.21875 h 0.640625 c 0.082031,0 0.148438,0.027344 0.203125,0.078125 0.0625,0.054687 0.09375,0.125 0.09375,0.21875 z m 0,0"
           style="stroke:none"
           inkscape:connector-curvature="0" />
      </symbol>
      <symbol
         id="glyph2-0"
         overflow="visible"
         style="overflow:visible">
        <path
           id="path905"
           d=""
           style="stroke:none"
           inkscape:connector-curvature="0" />
      </symbol>
      <symbol
         id="glyph2-1"
         overflow="visible"
         style="overflow:visible">
        <path
           id="path908"
           d="m 5.140625,-11.5 c 0.726563,0 1.367188,0.101562 1.921875,0.296875 0.550781,0.199219 1.007813,0.445312 1.375,0.734375 0.363281,0.292969 0.640625,0.617187 0.828125,0.96875 0.1875,0.34375 0.289063,0.671875 0.3125,0.984375 0.00781,0.125 -0.03125,0.230469 -0.125,0.3125 -0.085937,0.085937 -0.1875,0.125 -0.3125,0.125 h -1.125 c -0.1875,0 -0.328125,-0.03125 -0.421875,-0.09375 C 7.507813,-8.242188 7.425781,-8.34375 7.34375,-8.46875 7.1875,-8.738281 6.941406,-8.972656 6.609375,-9.171875 6.285156,-9.367188 5.796875,-9.46875 5.140625,-9.46875 c -0.273437,0 -0.539062,0.03125 -0.796875,0.09375 -0.25,0.054687 -0.46875,0.136719 -0.65625,0.25 -0.1875,0.117187 -0.339844,0.257812 -0.453125,0.421875 -0.105469,0.15625 -0.15625,0.339844 -0.15625,0.546875 0,0.25 0.050781,0.453125 0.15625,0.609375 0.101563,0.15625 0.273438,0.292969 0.515625,0.40625 0.238281,0.105469 0.554688,0.210937 0.953125,0.3125 0.40625,0.09375 0.90625,0.210937 1.5,0.34375 C 6.847656,-6.347656 7.40625,-6.1875 7.875,-6 c 0.46875,0.1875 0.847656,0.417969 1.140625,0.6875 0.300781,0.261719 0.523438,0.5625 0.671875,0.90625 0.144531,0.34375 0.21875,0.742187 0.21875,1.1875 0,0.480469 -0.109375,0.929687 -0.328125,1.34375 C 9.367188,-1.457031 9.0625,-1.097656 8.65625,-0.796875 8.257813,-0.503906 7.769531,-0.269531 7.1875,-0.09375 6.601563,0.0703125 5.953125,0.15625 5.234375,0.15625 4.628906,0.15625 4.050781,0.0820313 3.5,-0.0625 2.945313,-0.207031 2.457031,-0.414063 2.03125,-0.6875 1.601563,-0.957031 1.257813,-1.285156 1,-1.671875 0.738281,-2.066406 0.59375,-2.503906 0.5625,-2.984375 c -0.011719,-0.125 0.03125,-0.226563 0.125,-0.3125 0.09375,-0.082031 0.195313,-0.125 0.3125,-0.125 h 1.140625 c 0.175781,0 0.3125,0.039062 0.40625,0.109375 0.101563,0.0625 0.1875,0.15625 0.25,0.28125 0.070313,0.148437 0.160156,0.292969 0.265625,0.4375 0.113281,0.136719 0.257813,0.257812 0.4375,0.359375 0.1875,0.105469 0.414063,0.195312 0.6875,0.265625 0.28125,0.074219 0.628906,0.109375 1.046875,0.109375 0.320313,0 0.632813,-0.019531 0.9375,-0.0625 0.300781,-0.050781 0.5625,-0.132813 0.78125,-0.25 C 7.179688,-2.285156 7.363281,-2.425781 7.5,-2.59375 c 0.144531,-0.164063 0.21875,-0.375 0.21875,-0.625 0,-0.238281 -0.078125,-0.429688 -0.234375,-0.578125 -0.148437,-0.15625 -0.375,-0.285156 -0.6875,-0.390625 C 6.492188,-4.300781 6.113281,-4.40625 5.65625,-4.5 5.207031,-4.59375 4.6875,-4.71875 4.09375,-4.875 3.550781,-5 3.078125,-5.148438 2.671875,-5.328125 c -0.398437,-0.175781 -0.730469,-0.394531 -1,-0.65625 -0.261719,-0.257813 -0.460937,-0.566406 -0.59375,-0.921875 -0.125,-0.351563 -0.1875,-0.769531 -0.1875,-1.25 0,-0.488281 0.101563,-0.9375 0.3125,-1.34375 0.21875,-0.40625 0.515625,-0.753906 0.890625,-1.046875 0.382813,-0.289063 0.835938,-0.519531 1.359375,-0.6875 C 3.972656,-11.410156 4.535156,-11.5 5.140625,-11.5 Z m 0,0"
           style="stroke:none"
           inkscape:connector-curvature="0" />
      </symbol>
      <symbol
         id="glyph2-2"
         overflow="visible"
         style="overflow:visible">
        <path
           id="path911"
           d="M 0.875,-7.109375 C 0.90625,-7.710938 1.019531,-8.28125 1.21875,-8.8125 c 0.195313,-0.53125 0.488281,-0.992188 0.875,-1.390625 0.394531,-0.394531 0.882813,-0.707031 1.46875,-0.9375 C 4.144531,-11.378906 4.835938,-11.5 5.640625,-11.5 c 0.78125,0 1.460938,0.117187 2.046875,0.34375 0.582031,0.230469 1.066406,0.546875 1.453125,0.953125 0.394531,0.398437 0.691406,0.859375 0.890625,1.390625 0.207031,0.523437 0.328125,1.089844 0.359375,1.703125 0.0078,0.210937 0.01563,0.4375 0.01563,0.6875 0.0078,0.25 0.01563,0.507812 0.01563,0.765625 0,0.261719 -0.0078,0.515625 -0.01563,0.765625 0,0.25 -0.0078,0.480469 -0.01563,0.6875 -0.03125,0.605469 -0.148437,1.171875 -0.34375,1.703125 -0.199219,0.53125 -0.496094,0.996094 -0.890625,1.390625 -0.386719,0.398437 -0.875,0.710937 -1.46875,0.9375 C 7.101563,0.046875 6.421875,0.15625 5.640625,0.15625 4.835938,0.15625 4.144531,0.046875 3.5625,-0.171875 2.976563,-0.398438 2.488281,-0.710938 2.09375,-1.109375 1.707031,-1.503906 1.414063,-1.96875 1.21875,-2.5 1.019531,-3.03125 0.90625,-3.597656 0.875,-4.203125 c -0.011719,-0.207031 -0.023437,-0.4375 -0.03125,-0.6875 0,-0.25 0,-0.503906 0,-0.765625 0,-0.257813 0,-0.515625 0,-0.765625 0.007813,-0.25 0.019531,-0.476563 0.03125,-0.6875 z m 7.328125,0.078125 c -0.042969,-0.769531 -0.292969,-1.367188 -0.75,-1.796875 -0.460937,-0.425781 -1.0625,-0.640625 -1.8125,-0.640625 -0.761719,0 -1.371094,0.214844 -1.828125,0.640625 -0.460937,0.429687 -0.710937,1.027344 -0.75,1.796875 -0.023437,0.417969 -0.03125,0.875 -0.03125,1.375 0,0.5 0.00781,0.953125 0.03125,1.359375 0.039063,0.78125 0.289063,1.386719 0.75,1.8125 0.457031,0.417969 1.066406,0.625 1.828125,0.625 0.75,0 1.351563,-0.207031 1.8125,-0.625 0.457031,-0.425781 0.707031,-1.03125 0.75,-1.8125 0.019531,-0.40625 0.03125,-0.859375 0.03125,-1.359375 0,-0.5 -0.011719,-0.957031 -0.03125,-1.375 z m 0,0"
           style="stroke:none"
           inkscape:connector-curvature="0" />
      </symbol>
      <symbol
         id="glyph2-3"
         overflow="visible"
         style="overflow:visible">
        <path
           id="path914"
           d="m 6.578125,-5.546875 3.0625,-5.34375 c 0.050781,-0.05078 0.125,-0.132813 0.21875,-0.25 0.101563,-0.125 0.265625,-0.1875 0.484375,-0.1875 h 1.09375 c 0.125,0 0.226563,0.04297 0.3125,0.125 0.08203,0.08594 0.125,0.1875 0.125,0.3125 V -0.4375 c 0,0.117187 -0.04297,0.21875 -0.125,0.3125 C 11.664063,-0.0390625 11.5625,0 11.4375,0 h -1.296875 c -0.125,0 -0.230469,-0.0390625 -0.3125,-0.125 -0.085937,-0.09375 -0.125,-0.195313 -0.125,-0.3125 V -6.765625 L 7.59375,-3.125 C 7.539063,-3.039063 7.460938,-2.953125 7.359375,-2.859375 7.265625,-2.765625 7.144531,-2.71875 7,-2.71875 H 6.15625 C 6,-2.71875 5.875,-2.765625 5.78125,-2.859375 5.6875,-2.953125 5.609375,-3.039063 5.546875,-3.125 L 3.453125,-6.765625 V -0.4375 c 0,0.117187 -0.046875,0.21875 -0.140625,0.3125 C 3.226563,-0.0390625 3.128906,0 3.015625,0 h -1.3125 c -0.125,0 -0.230469,-0.0390625 -0.3125,-0.125 -0.085937,-0.09375 -0.125,-0.195313 -0.125,-0.3125 v -10.453125 c 0,-0.125 0.039063,-0.226563 0.125,-0.3125 0.082031,-0.08203 0.1875,-0.125 0.3125,-0.125 h 1.09375 c 0.21875,0 0.378906,0.0625 0.484375,0.1875 0.101563,0.117187 0.175781,0.199219 0.21875,0.25 z m 0,0"
           style="stroke:none"
           inkscape:connector-curvature="0" />
      </symbol>
      <symbol
         id="glyph2-4"
         overflow="visible"
         style="overflow:visible">
        <path
           id="path917"
           d="m 8.8125,-2.015625 c 0.113281,0 0.210938,0.042969 0.296875,0.125 C 9.203125,-1.804688 9.25,-1.707031 9.25,-1.59375 v 1.15625 c 0,0.117187 -0.046875,0.21875 -0.140625,0.3125 C 9.023438,-0.0390625 8.925781,0 8.8125,0 H 1.703125 c -0.125,0 -0.230469,-0.0390625 -0.3125,-0.125 -0.085937,-0.09375 -0.125,-0.195313 -0.125,-0.3125 v -10.453125 c 0,-0.125 0.039063,-0.226563 0.125,-0.3125 0.082031,-0.08203 0.1875,-0.125 0.3125,-0.125 h 6.96875 c 0.125,0 0.226563,0.04297 0.3125,0.125 0.082031,0.08594 0.125,0.1875 0.125,0.3125 V -9.75 c 0,0.125 -0.042969,0.230469 -0.125,0.3125 -0.085937,0.085937 -0.1875,0.125 -0.3125,0.125 h -5.21875 v 2.578125 h 4.875 c 0.113281,0 0.210938,0.046875 0.296875,0.140625 0.082031,0.085937 0.125,0.183594 0.125,0.296875 v 1.15625 c 0,0.117187 -0.042969,0.21875 -0.125,0.3125 -0.085937,0.085937 -0.183594,0.125 -0.296875,0.125 h -4.875 v 2.6875 z m 0,0"
           style="stroke:none"
           inkscape:connector-curvature="0" />
      </symbol>
      <symbol
         id="glyph2-5"
         overflow="visible"
         style="overflow:visible">
        <path
           id="path920"
           d="m 8.8125,-11.328125 c 0.113281,0 0.210938,0.04297 0.296875,0.125 0.09375,0.08594 0.140625,0.1875 0.140625,0.3125 V -9.75 c 0,0.125 -0.046875,0.230469 -0.140625,0.3125 -0.085937,0.085937 -0.183594,0.125 -0.296875,0.125 H 5.890625 v 8.875 c 0,0.117187 -0.042969,0.21875 -0.125,0.3125 C 5.679688,-0.0390625 5.578125,0 5.453125,0 h -1.3125 c -0.117187,0 -0.21875,-0.0390625 -0.3125,-0.125 -0.085937,-0.09375 -0.125,-0.195313 -0.125,-0.3125 v -8.875 h -2.90625 c -0.125,0 -0.230469,-0.039063 -0.3125,-0.125 -0.085937,-0.082031 -0.125,-0.1875 -0.125,-0.3125 v -1.140625 c 0,-0.125 0.039063,-0.226563 0.125,-0.3125 0.082031,-0.08203 0.1875,-0.125 0.3125,-0.125 z m 0,0"
           style="stroke:none"
           inkscape:connector-curvature="0" />
      </symbol>
      <symbol
         id="glyph2-6"
         overflow="visible"
         style="overflow:visible">
        <path
           id="path923"
           d="m 10.078125,-11.328125 c 0.125,0 0.226563,0.04297 0.3125,0.125 0.08203,0.08594 0.125,0.1875 0.125,0.3125 V -0.4375 c 0,0.117187 -0.04297,0.21875 -0.125,0.3125 C 10.304688,-0.0390625 10.203125,0 10.078125,0 H 8.78125 c -0.125,0 -0.230469,-0.0390625 -0.3125,-0.125 -0.085937,-0.09375 -0.125,-0.195313 -0.125,-0.3125 V -4.703125 H 3.453125 V -0.4375 c 0,0.117187 -0.046875,0.21875 -0.140625,0.3125 C 3.226563,-0.0390625 3.128906,0 3.015625,0 h -1.3125 c -0.125,0 -0.230469,-0.0390625 -0.3125,-0.125 -0.085937,-0.082031 -0.125,-0.1875 -0.125,-0.3125 v -10.453125 c 0,-0.125 0.039063,-0.226563 0.125,-0.3125 0.082031,-0.08203 0.1875,-0.125 0.3125,-0.125 h 1.3125 c 0.113281,0 0.210938,0.04297 0.296875,0.125 0.09375,0.08594 0.140625,0.1875 0.140625,0.3125 v 4.15625 H 8.34375 v -4.15625 c 0,-0.125 0.039063,-0.226563 0.125,-0.3125 0.082031,-0.08203 0.1875,-0.125 0.3125,-0.125 z m 0,0"
           style="stroke:none"
           inkscape:connector-curvature="0" />
      </symbol>
      <symbol
         id="glyph2-7"
         overflow="visible"
         style="overflow:visible">
        <path
           id="path926"
           d="m 1.703125,0 c -0.125,0 -0.230469,-0.0390625 -0.3125,-0.125 -0.085937,-0.09375 -0.125,-0.195313 -0.125,-0.3125 v -10.453125 c 0,-0.125 0.039063,-0.226563 0.125,-0.3125 0.082031,-0.08203 0.1875,-0.125 0.3125,-0.125 h 1.3125 c 0.113281,0 0.210938,0.04297 0.296875,0.125 0.09375,0.08594 0.140625,0.1875 0.140625,0.3125 V -0.4375 c 0,0.117187 -0.046875,0.21875 -0.140625,0.3125 C 3.226563,-0.0390625 3.128906,0 3.015625,0 Z m 0,0"
           style="stroke:none"
           inkscape:connector-curvature="0" />
      </symbol>
      <symbol
         id="glyph2-8"
         overflow="visible"
         style="overflow:visible">
        <path
           id="path929"
           d="M 8.609375,0 C 8.429688,0 8.289063,-0.046875 8.1875,-0.140625 8.09375,-0.242188 8.023438,-0.320313 7.984375,-0.375 L 3.453125,-7.109375 V -0.4375 c 0,0.117187 -0.046875,0.21875 -0.140625,0.3125 C 3.226563,-0.0390625 3.128906,0 3.015625,0 h -1.3125 c -0.125,0 -0.230469,-0.0390625 -0.3125,-0.125 -0.085937,-0.09375 -0.125,-0.195313 -0.125,-0.3125 v -10.453125 c 0,-0.125 0.039063,-0.226563 0.125,-0.3125 0.082031,-0.08203 0.1875,-0.125 0.3125,-0.125 h 1.125 c 0.1875,0 0.328125,0.04687 0.421875,0.140625 0.101563,0.09375 0.175781,0.171875 0.21875,0.234375 L 8,-4.21875 v -6.671875 c 0,-0.125 0.039063,-0.226563 0.125,-0.3125 0.082031,-0.08203 0.1875,-0.125 0.3125,-0.125 H 9.75 c 0.113281,0 0.210938,0.04297 0.296875,0.125 0.09375,0.08594 0.140625,0.1875 0.140625,0.3125 V -0.4375 c 0,0.117187 -0.04687,0.21875 -0.140625,0.3125 C 9.960938,-0.0390625 9.863281,0 9.75,0 Z m 0,0"
           style="stroke:none"
           inkscape:connector-curvature="0" />
      </symbol>
      <symbol
         id="glyph2-9"
         overflow="visible"
         style="overflow:visible">
        <path
           id="path932"
           d="M 0.859375,-7.140625 C 0.878906,-7.785156 0.992188,-8.375 1.203125,-8.90625 c 0.21875,-0.539063 0.53125,-1 0.9375,-1.375 C 2.554688,-10.664063 3.0625,-10.960938 3.65625,-11.171875 4.257813,-11.390625 4.960938,-11.5 5.765625,-11.5 c 0.9375,0 1.707031,0.125 2.3125,0.375 0.613281,0.242187 1.097656,0.53125 1.453125,0.875 0.363281,0.335937 0.617188,0.683594 0.765625,1.046875 0.144531,0.367187 0.226563,0.671875 0.25,0.921875 0.01953,0.125 -0.01563,0.230469 -0.109375,0.3125 -0.09375,0.085937 -0.203125,0.125 -0.328125,0.125 H 8.8125 C 8.6875,-7.84375 8.585938,-7.875 8.515625,-7.9375 8.453125,-8 8.40625,-8.0625 8.375,-8.125 8.351563,-8.164063 8.296875,-8.257813 8.203125,-8.40625 8.109375,-8.550781 7.960938,-8.703125 7.765625,-8.859375 7.566406,-9.015625 7.300781,-9.15625 6.96875,-9.28125 c -0.324219,-0.125 -0.726562,-0.1875 -1.203125,-0.1875 -0.8125,0 -1.464844,0.21875 -1.953125,0.65625 -0.480469,0.4375 -0.734375,1.023437 -0.765625,1.75 -0.023437,0.417969 -0.03125,0.859375 -0.03125,1.328125 0,0.46875 0.00781,0.90625 0.03125,1.3125 0.03125,0.898437 0.285156,1.546875 0.765625,1.953125 0.488281,0.40625 1.140625,0.609375 1.953125,0.609375 0.394531,0 0.757813,-0.039063 1.09375,-0.125 0.332031,-0.09375 0.617188,-0.234375 0.859375,-0.421875 0.25,-0.195313 0.441406,-0.453125 0.578125,-0.765625 C 8.429688,-3.492188 8.5,-3.890625 8.5,-4.359375 v -0.125 H 6.53125 c -0.125,0 -0.230469,-0.039063 -0.3125,-0.125 -0.085937,-0.09375 -0.125,-0.195313 -0.125,-0.3125 V -6.0625 c 0,-0.125 0.039063,-0.226563 0.125,-0.3125 C 6.300781,-6.457031 6.40625,-6.5 6.53125,-6.5 H 10.25 c 0.113281,0 0.210938,0.042969 0.296875,0.125 0.09375,0.085937 0.140625,0.1875 0.140625,0.3125 v 1.765625 c 0,0.65625 -0.105469,1.257812 -0.3125,1.796875 -0.210937,0.542969 -0.515625,1.011719 -0.921875,1.40625 -0.40625,0.398437 -0.917969,0.703125 -1.53125,0.921875 C 7.304688,0.046875 6.585938,0.15625 5.765625,0.15625 4.941406,0.15625 4.226563,0.0507813 3.625,-0.15625 3.019531,-0.375 2.515625,-0.675781 2.109375,-1.0625 1.710938,-1.457031 1.410156,-1.925781 1.203125,-2.46875 0.992188,-3.007813 0.878906,-3.601563 0.859375,-4.25 0.847656,-4.457031 0.835938,-4.6875 0.828125,-4.9375 c 0,-0.25 0,-0.503906 0,-0.765625 0,-0.257813 0,-0.507813 0,-0.75 0.007813,-0.25 0.019531,-0.476563 0.03125,-0.6875 z m 0,0"
           style="stroke:none"
           inkscape:connector-curvature="0" />
      </symbol>
      <symbol
         id="glyph2-10"
         overflow="visible"
         style="overflow:visible">
        <path
           id="path935"
           d=""
           style="stroke:none"
           inkscape:connector-curvature="0" />
      </symbol>
      <symbol
         id="glyph2-11"
         overflow="visible"
         style="overflow:visible">
        <path
           id="path938"
           d="M 6.484375,-5.390625 5.09375,-0.546875 C 5.039063,-0.390625 4.972656,-0.257813 4.890625,-0.15625 4.816406,-0.0507813 4.695313,0 4.53125,0 H 3.21875 C 3.0625,0 2.9375,-0.0507813 2.84375,-0.15625 2.75,-0.257813 2.6875,-0.390625 2.65625,-0.546875 l -2.078125,-10.21875 c -0.011719,-0.05078 -0.015625,-0.09375 -0.015625,-0.125 0,-0.125 0.039063,-0.226563 0.125,-0.3125 0.09375,-0.08203 0.195313,-0.125 0.3125,-0.125 h 1.203125 c 0.101563,0 0.203125,0.03125 0.296875,0.09375 0.101563,0.0625 0.171875,0.179687 0.203125,0.34375 L 4.0625,-4.03125 5.265625,-8.359375 c 0.019531,-0.070313 0.066406,-0.164063 0.140625,-0.28125 0.082031,-0.125 0.222656,-0.1875 0.421875,-0.1875 H 7.15625 c 0.195313,0 0.332031,0.0625 0.40625,0.1875 0.082031,0.117187 0.132813,0.210937 0.15625,0.28125 l 1.203125,4.328125 1.359375,-6.859375 c 0.03125,-0.164063 0.09375,-0.28125 0.1875,-0.34375 0.101563,-0.0625 0.207031,-0.09375 0.3125,-0.09375 h 1.203125 c 0.113281,0 0.210938,0.04297 0.296875,0.125 0.09375,0.08594 0.140625,0.1875 0.140625,0.3125 0,0.03125 -0.0078,0.07422 -0.01563,0.125 l -2.078125,10.21875 c -0.03125,0.15625 -0.09375,0.289062 -0.1875,0.390625 C 10.046875,-0.0507813 9.921875,0 9.765625,0 h -1.3125 C 8.285156,0 8.160156,-0.0507813 8.078125,-0.15625 8.003906,-0.257813 7.941406,-0.390625 7.890625,-0.546875 Z m 0,0"
           style="stroke:none"
           inkscape:connector-curvature="0" />
      </symbol>
      <symbol
         id="glyph2-12"
         overflow="visible"
         style="overflow:visible">
        <path
           id="path941"
           d="m 5.875,-11.328125 c 1.351563,0 2.378906,0.3125 3.078125,0.9375 C 9.648438,-9.765625 10,-8.894531 10,-7.78125 10,-7 9.816406,-6.328125 9.453125,-5.765625 9.097656,-5.210938 8.566406,-4.800781 7.859375,-4.53125 l 2.234375,4 c 0.03906,0.0625 0.0625,0.121094 0.0625,0.171875 0,0.105469 -0.03906,0.195312 -0.109375,0.265625 C 9.972656,-0.03125 9.890625,0 9.796875,0 h -1.375 C 8.203125,0 8.039063,-0.0507813 7.9375,-0.15625 7.832031,-0.257813 7.757813,-0.351563 7.71875,-0.4375 l -2.125,-3.765625 H 3.453125 V -0.4375 c 0,0.117187 -0.046875,0.21875 -0.140625,0.3125 C 3.226563,-0.0390625 3.128906,0 3.015625,0 h -1.3125 c -0.125,0 -0.230469,-0.0390625 -0.3125,-0.125 -0.085937,-0.09375 -0.125,-0.195313 -0.125,-0.3125 v -10.453125 c 0,-0.125 0.039063,-0.226563 0.125,-0.3125 0.082031,-0.08203 0.1875,-0.125 0.3125,-0.125 z m -2.421875,5.09375 h 2.34375 c 0.613281,0 1.101563,-0.101563 1.46875,-0.3125 C 7.628906,-6.765625 7.8125,-7.175781 7.8125,-7.78125 7.8125,-8.382813 7.628906,-8.789063 7.265625,-9 6.898438,-9.207031 6.410156,-9.3125 5.796875,-9.3125 h -2.34375 z m 0,0"
           style="stroke:none"
           inkscape:connector-curvature="0" />
      </symbol>
      <symbol
         id="glyph3-0"
         overflow="visible"
         style="overflow:visible">
        <path
           id="path944"
           d=""
           style="stroke:none"
           inkscape:connector-curvature="0" />
      </symbol>
      <symbol
         id="glyph3-1"
         overflow="visible"
         style="overflow:visible">
        <path
           id="path947"
           d="M 1.453125,-2.546875 V -0.71875 H 3.09375 c 0.164063,0 0.316406,-0.019531 0.453125,-0.0625 0.144531,-0.050781 0.257813,-0.117188 0.34375,-0.203125 C 3.984375,-1.078125 4.050781,-1.175781 4.09375,-1.28125 4.144531,-1.382813 4.171875,-1.5 4.171875,-1.625 c 0,-0.113281 -0.023437,-0.226563 -0.0625,-0.34375 C 4.066406,-2.082031 4,-2.179688 3.90625,-2.265625 3.820313,-2.347656 3.707031,-2.414063 3.5625,-2.46875 3.425781,-2.519531 3.269531,-2.546875 3.09375,-2.546875 Z m 0,-2.34375 v 1.625 H 2.96875 c 0.363281,0 0.632813,-0.066406 0.8125,-0.203125 0.175781,-0.144531 0.265625,-0.347656 0.265625,-0.609375 0,-0.257813 -0.089844,-0.457031 -0.265625,-0.59375 -0.179687,-0.144531 -0.449219,-0.21875 -0.8125,-0.21875 z M 0.90625,0 C 0.84375,0 0.789063,-0.0195313 0.75,-0.0625 0.707031,-0.101563 0.6875,-0.15625 0.6875,-0.21875 v -5.171875 c 0,-0.0625 0.019531,-0.113281 0.0625,-0.15625 0.039063,-0.039063 0.09375,-0.0625 0.15625,-0.0625 h 2.140625 c 0.34375,0 0.625,0.054687 0.84375,0.15625 0.226563,0.105469 0.410156,0.234375 0.546875,0.390625 0.132813,0.148437 0.226563,0.308594 0.28125,0.484375 0.0625,0.179687 0.09375,0.335937 0.09375,0.46875 0,0.179687 -0.027344,0.335937 -0.078125,0.46875 -0.054687,0.136719 -0.117187,0.25 -0.1875,0.34375 -0.074219,0.085937 -0.148437,0.15625 -0.21875,0.21875 -0.074219,0.054687 -0.125,0.089844 -0.15625,0.109375 0.195313,0.136719 0.367188,0.320312 0.515625,0.546875 0.15625,0.230469 0.234375,0.496094 0.234375,0.796875 0,0.199219 -0.039062,0.398437 -0.109375,0.59375 -0.074219,0.1875 -0.183594,0.359375 -0.328125,0.515625 -0.148437,0.15625 -0.335937,0.28125 -0.5625,0.375 C 3.703125,-0.046875 3.453125,0 3.171875,0 Z m 0,0"
           style="stroke:none"
           inkscape:connector-curvature="0" />
      </symbol>
      <symbol
         id="glyph3-2"
         overflow="visible"
         style="overflow:visible">
        <path
           id="path950"
           d="m 4.109375,-1.265625 h -2.78125 l -0.421875,1.0625 C 0.894531,-0.160156 0.867188,-0.113281 0.828125,-0.0625 0.785156,-0.0195313 0.707031,0 0.59375,0 H 0.296875 C 0.253906,0 0.210938,-0.015625 0.171875,-0.046875 0.140625,-0.0859375 0.125,-0.128906 0.125,-0.171875 c 0,-0.03125 0.007813,-0.066406 0.03125,-0.109375 L 2.125,-5.34375 c 0.03125,-0.0625 0.070313,-0.117188 0.125,-0.171875 0.050781,-0.0625 0.128906,-0.09375 0.234375,-0.09375 H 2.96875 c 0.101563,0 0.179688,0.03125 0.234375,0.09375 0.050781,0.054687 0.09375,0.109375 0.125,0.171875 l 1.953125,5.0625 c 0.019531,0.042969 0.03125,0.078125 0.03125,0.109375 0,0.042969 -0.023437,0.0859375 -0.0625,0.125 C 5.21875,-0.015625 5.179688,0 5.140625,0 H 4.84375 C 4.738281,0 4.660156,-0.0195313 4.609375,-0.0625 4.566406,-0.113281 4.539063,-0.160156 4.53125,-0.203125 Z m -2.5,-0.71875 h 2.21875 L 2.71875,-4.84375 Z m 0,0"
           style="stroke:none"
           inkscape:connector-curvature="0" />
      </symbol>
      <symbol
         id="glyph3-3"
         overflow="visible"
         style="overflow:visible">
        <path
           id="path953"
           d="m 1.25,-3.484375 c -0.023437,0.242187 -0.03125,0.464844 -0.03125,0.671875 0,0.210937 0.00781,0.4375 0.03125,0.6875 0.00781,0.4375 0.140625,0.796875 0.390625,1.078125 0.257813,0.273437 0.625,0.40625 1.09375,0.40625 0.257813,0 0.476563,-0.03125 0.65625,-0.09375 0.175781,-0.0625 0.320313,-0.144531 0.4375,-0.25 0.113281,-0.101563 0.203125,-0.21875 0.265625,-0.34375 0.0625,-0.132813 0.109375,-0.269531 0.140625,-0.40625 0.00781,-0.050781 0.035156,-0.09375 0.078125,-0.125 0.039063,-0.03125 0.082031,-0.046875 0.125,-0.046875 h 0.375 c 0.039063,0 0.078125,0.023437 0.109375,0.0625 0.039063,0.03125 0.0625,0.070312 0.0625,0.109375 0,0.179687 -0.046875,0.371094 -0.140625,0.578125 -0.085937,0.210937 -0.214844,0.40625 -0.390625,0.59375 -0.179687,0.1875 -0.40625,0.34375 -0.6875,0.46875 -0.28125,0.1132813 -0.625,0.171875 -1.03125,0.171875 -0.34375,0 -0.652344,-0.0546875 -0.921875,-0.15625 C 1.539063,-0.191406 1.304688,-0.34375 1.109375,-0.53125 0.910156,-0.726563 0.757813,-0.957031 0.65625,-1.21875 c -0.105469,-0.269531 -0.164062,-0.5625 -0.171875,-0.875 -0.023437,-0.476563 -0.023437,-0.953125 0,-1.421875 C 0.492188,-3.828125 0.550781,-4.113281 0.65625,-4.375 0.757813,-4.644531 0.910156,-4.875 1.109375,-5.0625 1.304688,-5.257813 1.539063,-5.410156 1.8125,-5.515625 2.082031,-5.628906 2.390625,-5.6875 2.734375,-5.6875 c 0.40625,0 0.75,0.0625 1.03125,0.1875 0.28125,0.117187 0.507813,0.265625 0.6875,0.453125 0.175781,0.1875 0.304688,0.386719 0.390625,0.59375 0.09375,0.210937 0.140625,0.402344 0.140625,0.578125 0,0.042969 -0.023437,0.085937 -0.0625,0.125 -0.03125,0.03125 -0.070312,0.046875 -0.109375,0.046875 H 4.4375 C 4.394531,-3.703125 4.351563,-3.71875 4.3125,-3.75 4.269531,-3.78125 4.242188,-3.820313 4.234375,-3.875 4.203125,-4.007813 4.15625,-4.140625 4.09375,-4.265625 4.03125,-4.398438 3.941406,-4.519531 3.828125,-4.625 3.710938,-4.726563 3.566406,-4.8125 3.390625,-4.875 3.210938,-4.9375 2.992188,-4.96875 2.734375,-4.96875 c -0.46875,0 -0.835937,0.140625 -1.09375,0.421875 -0.25,0.273437 -0.382812,0.625 -0.390625,1.0625 z m 0,0"
           style="stroke:none"
           inkscape:connector-curvature="0" />
      </symbol>
      <symbol
         id="glyph3-4"
         overflow="visible"
         style="overflow:visible">
        <path
           id="path956"
           d="m 1.875,-2.921875 2.71875,2.59375 c 0.039063,0.042969 0.066406,0.074219 0.078125,0.09375 0.00781,0.023437 0.015625,0.042969 0.015625,0.0625 0,0.042969 -0.023437,0.0859375 -0.0625,0.125 C 4.59375,-0.015625 4.550781,0 4.5,0 H 4.015625 C 3.929688,0 3.863281,-0.015625 3.8125,-0.046875 3.769531,-0.078125 3.738281,-0.101563 3.71875,-0.125 L 1.453125,-2.28125 v 2.0625 c 0,0.0625 -0.023437,0.117187 -0.0625,0.15625 C 1.347656,-0.0195313 1.296875,0 1.234375,0 H 0.90625 C 0.84375,0 0.789063,-0.0195313 0.75,-0.0625 0.707031,-0.101563 0.6875,-0.15625 0.6875,-0.21875 v -5.171875 c 0,-0.0625 0.019531,-0.113281 0.0625,-0.15625 0.039063,-0.039063 0.09375,-0.0625 0.15625,-0.0625 h 0.328125 c 0.0625,0 0.113281,0.023437 0.15625,0.0625 0.039063,0.042969 0.0625,0.09375 0.0625,0.15625 V -3.53125 L 3.59375,-5.484375 C 3.613281,-5.503906 3.644531,-5.53125 3.6875,-5.5625 3.738281,-5.59375 3.800781,-5.609375 3.875,-5.609375 h 0.46875 c 0.050781,0 0.09375,0.023437 0.125,0.0625 0.03125,0.03125 0.046875,0.070312 0.046875,0.109375 0,0.023437 -0.00781,0.042969 -0.015625,0.0625 -0.011719,0.023437 -0.03125,0.046875 -0.0625,0.078125 z m 0,0"
           style="stroke:none"
           inkscape:connector-curvature="0" />
      </symbol>
      <symbol
         id="glyph3-5"
         overflow="visible"
         style="overflow:visible">
        <path
           id="path959"
           d=""
           style="stroke:none"
           inkscape:connector-curvature="0" />
      </symbol>
      <symbol
         id="glyph3-6"
         overflow="visible"
         style="overflow:visible">
        <path
           id="path962"
           d="m 4.15625,-5.609375 c 0.0625,0 0.113281,0.023437 0.15625,0.0625 0.039063,0.042969 0.0625,0.09375 0.0625,0.15625 v 0.28125 c 0,0.0625 -0.023437,0.117187 -0.0625,0.15625 -0.042969,0.042969 -0.09375,0.0625 -0.15625,0.0625 h -1.5 v 4.671875 c 0,0.0625 -0.023437,0.117187 -0.0625,0.15625 C 2.550781,-0.0195313 2.5,0 2.4375,0 H 2.109375 C 2.054688,0 2.007813,-0.0195313 1.96875,-0.0625 1.925781,-0.101563 1.90625,-0.15625 1.90625,-0.21875 v -4.671875 h -1.5 c -0.0625,0 -0.117187,-0.019531 -0.15625,-0.0625 -0.042969,-0.039063 -0.0625,-0.09375 -0.0625,-0.15625 v -0.28125 c 0,-0.0625 0.019531,-0.113281 0.0625,-0.15625 0.039063,-0.039063 0.09375,-0.0625 0.15625,-0.0625 z m 0,0"
           style="stroke:none"
           inkscape:connector-curvature="0" />
      </symbol>
      <symbol
         id="glyph3-7"
         overflow="visible"
         style="overflow:visible">
        <path
           id="path965"
           d="m 0.484375,-3.515625 c 0,-0.300781 0.046875,-0.582031 0.140625,-0.84375 0.101563,-0.269531 0.25,-0.5 0.4375,-0.6875 C 1.25,-5.242188 1.476563,-5.398438 1.75,-5.515625 2.03125,-5.628906 2.34375,-5.6875 2.6875,-5.6875 c 0.351563,0 0.664063,0.058594 0.9375,0.171875 0.28125,0.117187 0.507813,0.273437 0.6875,0.46875 0.1875,0.1875 0.328125,0.417969 0.421875,0.6875 0.101563,0.261719 0.160156,0.542969 0.171875,0.84375 0.00781,0.46875 0.00781,0.945312 0,1.421875 C 4.894531,-1.789063 4.835938,-1.503906 4.734375,-1.234375 4.640625,-0.972656 4.5,-0.742188 4.3125,-0.546875 4.125,-0.347656 3.894531,-0.191406 3.625,-0.078125 3.351563,0.0234375 3.039063,0.078125 2.6875,0.078125 c -0.34375,0 -0.652344,-0.0546875 -0.921875,-0.15625 -0.273437,-0.113281 -0.5,-0.269531 -0.6875,-0.46875 -0.1875,-0.195313 -0.335937,-0.425781 -0.4375,-0.6875 -0.09375,-0.269531 -0.148437,-0.554688 -0.15625,-0.859375 -0.023437,-0.476563 -0.023437,-0.953125 0,-1.421875 z m 3.65625,0.03125 c -0.011719,-0.25 -0.054687,-0.46875 -0.125,-0.65625 C 3.941406,-4.328125 3.84375,-4.476563 3.71875,-4.59375 3.59375,-4.71875 3.441406,-4.8125 3.265625,-4.875 3.085938,-4.9375 2.894531,-4.96875 2.6875,-4.96875 2.476563,-4.96875 2.285156,-4.9375 2.109375,-4.875 1.941406,-4.8125 1.789063,-4.71875 1.65625,-4.59375 1.53125,-4.476563 1.429688,-4.328125 1.359375,-4.140625 1.285156,-3.953125 1.25,-3.734375 1.25,-3.484375 1.226563,-3.242188 1.21875,-3.019531 1.21875,-2.8125 c 0,0.210937 0.00781,0.4375 0.03125,0.6875 0,0.25 0.035156,0.46875 0.109375,0.65625 C 1.429688,-1.28125 1.53125,-1.125 1.65625,-1 c 0.132813,0.117187 0.285156,0.203125 0.453125,0.265625 0.175781,0.0625 0.367188,0.09375 0.578125,0.09375 0.207031,0 0.398438,-0.03125 0.578125,-0.09375 C 3.441406,-0.796875 3.59375,-0.882813 3.71875,-1 c 0.125,-0.125 0.222656,-0.28125 0.296875,-0.46875 0.070313,-0.1875 0.113281,-0.40625 0.125,-0.65625 0.00781,-0.25 0.015625,-0.476563 0.015625,-0.6875 0,-0.207031 -0.00781,-0.429688 -0.015625,-0.671875 z m 0,0"
           style="stroke:none"
           inkscape:connector-curvature="0" />
      </symbol>
      <symbol
         id="glyph3-8"
         overflow="visible"
         style="overflow:visible">
        <path
           id="path968"
           d="m 4.8125,-5.609375 c 0.0625,0 0.113281,0.023437 0.15625,0.0625 0.039063,0.042969 0.0625,0.09375 0.0625,0.15625 v 5.171875 c 0,0.0625 -0.023437,0.117187 -0.0625,0.15625 C 4.925781,-0.0195313 4.875,0 4.8125,0 H 4.484375 C 4.429688,0 4.378906,-0.0195313 4.328125,-0.0625 4.285156,-0.101563 4.265625,-0.15625 4.265625,-0.21875 v -2.265625 h -2.8125 v 2.265625 c 0,0.0625 -0.023437,0.117187 -0.0625,0.15625 C 1.347656,-0.0195313 1.296875,0 1.234375,0 H 0.90625 C 0.84375,0 0.789063,-0.0195313 0.75,-0.0625 0.707031,-0.101563 0.6875,-0.15625 0.6875,-0.21875 v -5.171875 c 0,-0.0625 0.019531,-0.113281 0.0625,-0.15625 0.039063,-0.039063 0.09375,-0.0625 0.15625,-0.0625 h 0.328125 c 0.0625,0 0.113281,0.023437 0.15625,0.0625 0.039063,0.042969 0.0625,0.09375 0.0625,0.15625 v 2.1875 h 2.8125 v -2.1875 c 0,-0.0625 0.019531,-0.113281 0.0625,-0.15625 0.050781,-0.039063 0.101563,-0.0625 0.15625,-0.0625 z m 0,0"
           style="stroke:none"
           inkscape:connector-curvature="0" />
      </symbol>
      <symbol
         id="glyph3-9"
         overflow="visible"
         style="overflow:visible">
        <path
           id="path971"
           d="m 3.1875,-2.21875 1.609375,-3.140625 c 0.03125,-0.0625 0.070313,-0.117188 0.125,-0.171875 0.0625,-0.050781 0.140625,-0.078125 0.234375,-0.078125 h 0.296875 c 0.0625,0 0.113281,0.023437 0.15625,0.0625 0.039063,0.042969 0.0625,0.09375 0.0625,0.15625 v 5.171875 c 0,0.0625 -0.023437,0.117187 -0.0625,0.15625 C 5.566406,-0.0195313 5.515625,0 5.453125,0 H 5.125 C 5.070313,0 5.019531,-0.0195313 4.96875,-0.0625 4.925781,-0.101563 4.90625,-0.15625 4.90625,-0.21875 v -3.796875 l -1.25,2.40625 c -0.042969,0.085937 -0.089844,0.152344 -0.140625,0.203125 -0.042969,0.042969 -0.105469,0.0625 -0.1875,0.0625 H 3.03125 c -0.085937,0 -0.152344,-0.019531 -0.203125,-0.0625 -0.042969,-0.050781 -0.085937,-0.117188 -0.125,-0.203125 l -1.25,-2.40625 v 3.796875 c 0,0.0625 -0.023437,0.117187 -0.0625,0.15625 C 1.347656,-0.0195313 1.296875,0 1.234375,0 H 0.90625 C 0.84375,0 0.789063,-0.0195313 0.75,-0.0625 0.707031,-0.101563 0.6875,-0.15625 0.6875,-0.21875 v -5.171875 c 0,-0.0625 0.019531,-0.113281 0.0625,-0.15625 0.039063,-0.039063 0.09375,-0.0625 0.15625,-0.0625 h 0.296875 c 0.09375,0 0.164063,0.027344 0.21875,0.078125 0.0625,0.054687 0.109375,0.109375 0.140625,0.171875 z m 0,0"
           style="stroke:none"
           inkscape:connector-curvature="0" />
      </symbol>
      <symbol
         id="glyph3-10"
         overflow="visible"
         style="overflow:visible">
        <path
           id="path974"
           d="m 4.140625,-0.71875 c 0.0625,0 0.113281,0.023437 0.15625,0.0625 0.039063,0.042969 0.0625,0.09375 0.0625,0.15625 v 0.28125 c 0,0.0625 -0.023437,0.117187 -0.0625,0.15625 C 4.253906,-0.0195313 4.203125,0 4.140625,0 H 0.90625 C 0.84375,0 0.789063,-0.0195313 0.75,-0.0625 0.707031,-0.101563 0.6875,-0.15625 0.6875,-0.21875 v -5.171875 c 0,-0.0625 0.019531,-0.113281 0.0625,-0.15625 0.039063,-0.039063 0.09375,-0.0625 0.15625,-0.0625 h 3.171875 c 0.0625,0 0.113281,0.023437 0.15625,0.0625 0.039063,0.042969 0.0625,0.09375 0.0625,0.15625 v 0.28125 c 0,0.0625 -0.023437,0.117187 -0.0625,0.15625 -0.042969,0.042969 -0.09375,0.0625 -0.15625,0.0625 h -2.625 v 1.6875 H 3.90625 c 0.050781,0 0.097656,0.027344 0.140625,0.078125 C 4.097656,-3.082031 4.125,-3.035156 4.125,-2.984375 V -2.6875 c 0,0.054687 -0.027344,0.101562 -0.078125,0.140625 -0.042969,0.042969 -0.089844,0.0625 -0.140625,0.0625 H 1.453125 v 1.765625 z m 0,0"
           style="stroke:none"
           inkscape:connector-curvature="0" />
      </symbol>
    </g>
    <clipPath
       id="clip2">
      <path
         id="path979"
         d="M 0.910156,0.808594 H 167.93359 V 112.92578 H 0.910156 Z m 0,0"
         inkscape:connector-curvature="0" />
    </clipPath>
    <clipPath
       id="clip1">
      <rect
         id="rect982"
         height="113"
         width="168"
         y="0"
         x="0" />
    </clipPath>
    <g
       clip-path="url(#clip1)"
       id="surface1136">
      <g
         id="g987"
         clip-path="url(#clip2)"
         style="clip-rule:nonzero">
        <path
           id="path985"
           d="M 2.117188,110.29688 V 6.464844 c 0,-2.457031 1.769531,-4.449219 3.953125,-4.449219 H 165.96094 c 0.72265,0 1.38672,0.230469 1.96875,0.609375 -0.71875,-1.097656 -1.86719,-1.816406 -3.17188,-1.816406 H 4.863281 c -2.183593,0 -3.953125,1.992187 -3.953125,4.453125 V 109.08984 c 0,1.64844 0.804688,3.06641 1.984375,3.83594 -0.480468,-0.73828 -0.777343,-1.64062 -0.777343,-2.6289"
           style="fill:#66bfc7;fill-opacity:1;fill-rule:nonzero;stroke:none"
           inkscape:connector-curvature="0" />
      </g>
    </g>
    <filter
       height="1"
       width="1"
       y="0"
       x="0"
       filterUnits="objectBoundingBox"
       id="alpha">
      <feColorMatrix
         id="feColorMatrix990"
         values="0 0 0 0 1 0 0 0 0 1 0 0 0 0 1 0 0 0 1 0"
         in="SourceGraphic"
         type="matrix" />
    </filter>
    <mask
       id="mask0">
      <g
         id="g995"
         style="filter:url(#alpha)">
        <rect
           id="rect993"
           style="fill:#000000;fill-opacity:0.19999701;stroke:none"
           height="500"
           width="500"
           y="0"
           x="0" />
      </g>
    </mask>
    <clipPath
       id="clip4">
      <path
         id="path998"
         d="M 0.265625,0.824219 H 232.04297 v 9.96875 H 0.265625 Z m 0,0"
         inkscape:connector-curvature="0" />
    </clipPath>
    <clipPath
       id="clip3">
      <rect
         id="rect1001"
         height="11"
         width="233"
         y="0"
         x="0" />
    </clipPath>
    <g
       clip-path="url(#clip3)"
       id="surface1139">
      <g
         id="g1006"
         clip-path="url(#clip4)"
         style="clip-rule:nonzero">
        <path
           id="path1004"
           d="m 229.42578,0.824219 v 2.902344 c 0,2.460937 -2.71484,4.457031 -6.0625,4.457031 H 3.488281 c -1.1875,0 -2.289062,-0.257813 -3.222656,-0.691406 0.695313,1.894531 3.03125,3.300781 5.835938,3.300781 H 225.97656 c 3.34766,0 6.06641,-1.996094 6.06641,-4.453125 V 0.824219 Z m 0,0"
           style="fill:#3a4c73;fill-opacity:1;fill-rule:nonzero;stroke:none"
           inkscape:connector-curvature="0" />
      </g>
    </g>
  </defs>
  <sodipodi:namedview
     id="base"
     pagecolor="#ffffff"
     bordercolor="#666666"
     borderopacity="1.0"
     inkscape:pageopacity="0.0"
     inkscape:pageshadow="2"
     inkscape:zoom="0.98994949"
     inkscape:cx="198.34849"
     inkscape:cy="49.318269"
     inkscape:document-units="mm"
     inkscape:current-layer="surface1132"
     showgrid="false"
     fit-margin-top="0"
     fit-margin-left="0"
     fit-margin-right="0"
     fit-margin-bottom="0"
     inkscape:window-width="1920"
     inkscape:window-height="1017"
     inkscape:window-x="-8"
     inkscape:window-y="-8"
     inkscape:window-maximized="1" />
  <metadata
     id="metadata5">
    <rdf:RDF>
      <cc:Work
         rdf:about="">
        <dc:format>image/svg+xml</dc:format>
        <dc:type
           rdf:resource="http://purl.org/dc/dcmitype/StillImage" />
        <dc:title></dc:title>
      </cc:Work>
    </rdf:RDF>
  </metadata>
  <g
     inkscape:label="Layer 1"
     inkscape:groupmode="layer"
     id="layer1"
     transform="translate(-50.774209,-51.164283)">
    <g
       id="surface1132"
       transform="matrix(0.35277779,0,0,0.35277779,20.662695,24.353171)">
      <path
         id="path1013"
         d="m 250.42969,81.460938 c 0,3.019531 -2.44141,5.460937 -5.46094,5.460937 h -65.53516 c -3.01562,0 -5.46093,-2.441406 -5.46093,-5.460937 0,-3.015625 2.44531,-5.460938 5.46093,-5.460938 h 65.53516 c 3.01953,0 5.46094,2.445313 5.46094,5.460938"
         style="fill:#9ed9d9;fill-opacity:1;fill-rule:nonzero;stroke:none"
         inkscape:connector-curvature="0" />
      <path
         id="path1015"
         d="m 223.12109,92.386719 c 0,3.015625 -2.4414,5.460937 -5.46093,5.460937 h -65.53125 c -3.01954,0 -5.46094,-2.445312 -5.46094,-5.460937 0,-3.019531 2.4414,-5.464844 5.46094,-5.464844 h 65.53125 c 3.01953,0 5.46093,2.445313 5.46093,5.464844"
         style="fill:#9ed9d9;fill-opacity:1;fill-rule:nonzero;stroke:none"
         inkscape:connector-curvature="0" />
      <path
         id="path1017"
         d="m 426.39453,193.63281 c 0,3.01563 -2.44531,5.46094 -5.46484,5.46094 h -65.53125 c -3.01953,0 -5.46094,-2.44531 -5.46094,-5.46094 0,-3.01562 2.44141,-5.46094 5.46094,-5.46094 h 65.53125 c 3.01953,0 5.46484,2.44532 5.46484,5.46094"
         style="fill:#9ed9d9;fill-opacity:1;fill-rule:nonzero;stroke:none"
         inkscape:connector-curvature="0" />
      <path
         id="path1019"
         d="m 402.26172,186.51172 c 0,3.01953 -2.44531,5.46484 -5.46094,5.46484 h -65.53516 c -3.01562,0 -5.46484,-2.44531 -5.46484,-5.46484 0,-3.01563 2.44922,-5.46094 5.46484,-5.46094 h 65.53516 c 3.01563,0 5.46094,2.44531 5.46094,5.46094"
         style="fill:#9ed9d9;fill-opacity:1;fill-rule:nonzero;stroke:none"
         inkscape:connector-curvature="0" />
      <path
         id="path1021"
         d="m 399.08594,204.55469 c 0,3.01953 -2.44532,5.46093 -5.46094,5.46093 h -65.53516 c -3.01562,0 -5.46093,-2.4414 -5.46093,-5.46093 0,-3.01563 2.44531,-5.46094 5.46093,-5.46094 H 393.625 c 3.01562,0 5.46094,2.44531 5.46094,5.46094"
         style="fill:#9ed9d9;fill-opacity:1;fill-rule:nonzero;stroke:none"
         inkscape:connector-curvature="0" />
      <path
         id="path1023"
         d="m 184.89844,191.28906 c 0,3.01563 -2.44532,5.46094 -5.46485,5.46094 h -65.53125 c -3.01953,0 -5.46093,-2.44531 -5.46093,-5.46094 0,-3.01562 2.4414,-5.46094 5.46093,-5.46094 h 65.53125 c 3.01953,0 5.46485,2.44532 5.46485,5.46094"
         style="fill:#9ed9d9;fill-opacity:1;fill-rule:nonzero;stroke:none"
         inkscape:connector-curvature="0" />
      <path
         id="path1025"
         d="m 174.03516,182.26562 c 0,3.01954 -2.44141,5.46485 -5.46094,5.46485 h -65.53125 c -3.01953,0 -5.460939,-2.44531 -5.460939,-5.46485 0,-3.01562 2.441409,-5.46093 5.460939,-5.46093 h 65.53125 c 3.01953,0 5.46094,2.44531 5.46094,5.46093"
         style="fill:#9ed9d9;fill-opacity:1;fill-rule:nonzero;stroke:none"
         inkscape:connector-curvature="0" />
      <path
         id="path1027"
         d="m 161.8125,201.17969 c 0,3.01562 -2.44531,5.46093 -5.46094,5.46093 H 90.816406 c -3.015625,0 -5.460937,-2.44531 -5.460937,-5.46093 0,-3.01563 2.445312,-5.46094 5.460937,-5.46094 h 65.535154 c 3.01563,0 5.46094,2.44531 5.46094,5.46094"
         style="fill:#9ed9d9;fill-opacity:1;fill-rule:nonzero;stroke:none"
         inkscape:connector-curvature="0" />
      <path
         id="path1029"
         d="M 338.64062,237.19922 H 160.98047 c -3.10547,0 -5.63281,-2.83985 -5.63281,-6.33985 V 115.48438 c 0,-3.4961 2.52734,-6.33594 5.63281,-6.33594 h 177.66015 c 3.10547,0 5.63282,2.83984 5.63282,6.33594 v 115.37499 c 0,3.5 -2.52735,6.33985 -5.63282,6.33985"
         style="fill:#2e3d5c;fill-opacity:1;fill-rule:nonzero;stroke:none"
         inkscape:connector-curvature="0" />
      <path
         id="path1031"
         d="M 329.75781,116.80859 H 169.86328 c -2.17969,0 -3.95312,1.98829 -3.95312,4.44922 v 103.83203 c 0,2.4336 1.73828,4.40625 3.89062,4.44532 -0.10156,0.008 -0.0781,0.004 0.0625,0.004 h 159.89453 c 2.1836,0 3.95703,-1.98828 3.95703,-4.44922 V 121.25781 c 0,-2.46093 -1.77343,-4.44922 -3.95703,-4.44922"
         style="fill:#e6e6e6;fill-opacity:1;fill-rule:nonzero;stroke:none"
         inkscape:connector-curvature="0" />
      <use
         id="use1033"
         transform="translate(165,116)"
         comp-op="multiply"
         xlink:href="#surface1136"
         x="0"
         y="0"
         width="100%"
         height="100%" />
      <path
         id="path1035"
         d="m 250.03516,234.82422 h -116 v 5.51562 c 0,2.45703 2.71484,4.45313 6.0664,4.45313 h 219.875 c 3.34766,0 6.06641,-1.9961 6.06641,-4.45313 v -5.51562 z m 0,0"
         style="fill:#3a4c73;fill-opacity:1;fill-rule:nonzero;stroke:none"
         inkscape:connector-curvature="0" />
      <use
         id="use1037"
         mask="url(#mask0)"
         transform="translate(134,234)"
         comp-op="multiply"
         xlink:href="#surface1139"
         x="0"
         y="0"
         width="100%"
         height="100%" />
      <path
         id="path1039"
         d="m 261.72656,241.17969 h -23.47265 v -2.4336 h 23.47265 z m 0,0"
         style="fill:#ffffff;fill-opacity:1;fill-rule:nonzero;stroke:none"
         inkscape:connector-curvature="0" />
      <path
         id="path1041"
         d="m 329.75781,116.80859 h -19.99609 c 0.008,6.53125 5.57031,42.65235 -36.79688,81.22266 -21.64843,19.70703 -46.23437,27.85547 -56.32812,31.50781 h 113.12109 c 2.1836,0 3.95703,-1.98828 3.95703,-4.44922 V 121.25781 c 0,-2.46093 -1.77343,-4.44922 -3.95703,-4.44922"
         style="fill:#cfd1d4;fill-opacity:1;fill-rule:nonzero;stroke:none"
         inkscape:connector-curvature="0" />
      <path
         id="path1043"
         d="m 308.35547,153.48047 -7.26563,-0.87891 -6.20703,-9.48828 -7.51953,-13.83594 2.40234,14.48828 0.26563,8.97266 5.07031,6.03125 -6.98437,0.94922 -31.41407,-20.58984 14.77344,12.36718 -5.14844,3.75391 8.64844,-0.82813 7.27735,6.08985 5.57421,4.91406 -3.45703,1.13281 2.17578,10.09766 5.29688,13.64062 -13.11328,3.77735 9.17969,8.13672 -3.63672,-6.19141 11.39843,-4.53906 -5.3125,-16.98438 5.17579,-2.92968 5.4414,7 3.16406,-5.14063 10.65625,1.6875 5.89844,7.73828 10.39063,1.44141 -9.44141,-3.5625 -4.375,-8.69531 -10.49219,-2.89844 -1.87109,3.03906 10.9375,-17.78516 9.30469,-17.26171 z m 0,0"
         style="fill:#3f3f3f;fill-opacity:1;fill-rule:nonzero;stroke:none"
         inkscape:connector-curvature="0" />
      <path
         id="path1045"
         d="m 312.24609,160.23828 4.59766,5.86328 7.80469,-3.46875 -6.91407,1.19141 -1.89062,-9.4336 z m 0,0"
         style="fill:#3f3f3f;fill-opacity:1;fill-rule:nonzero;stroke:none"
         inkscape:connector-curvature="0" />
      <path
         id="path1047"
         d="m 306.74219,144.67578 1.47265,-7.65625 5.33203,-2.97266 -8.47265,1.29688 -1.90235,7.73047 -8.28515,0.0391 2.73047,4.17578 z m 0,0"
         style="fill:#3f3f3f;fill-opacity:1;fill-rule:nonzero;stroke:none"
         inkscape:connector-curvature="0" />
      <path
         id="path1049"
         d="m 285.62109,172.37109 -1.03125,-4.78906 -17.53515,4.50391 -15.28516,15.61328 15.09766,-12.73047 z m 0,0"
         style="fill:#3f3f3f;fill-opacity:1;fill-rule:nonzero;stroke:none"
         inkscape:connector-curvature="0" />
      <path
         id="path1051"
         d="m 370.66797,146.64062 -9.3711,-0.0117 -4.98828,-66.476566 19.46875,0.01953 z m 0,0"
         style="fill:#bd1c2b;fill-opacity:1;fill-rule:nonzero;stroke:none"
         inkscape:connector-curvature="0" />
      <path
         id="path1053"
         d="m 372.82422,158.89844 c -0.008,3.78515 -3.07422,6.85156 -6.85547,6.84765 -3.78906,-0.004 -6.85156,-3.07812 -6.84766,-6.85937 0.004,-3.78516 3.07422,-6.84766 6.85547,-6.84766 3.78516,0.008 6.85156,3.07422 6.84766,6.85938"
         style="fill:#bd1c2b;fill-opacity:1;fill-rule:nonzero;stroke:none"
         inkscape:connector-curvature="0" />
      <g
         id="g1093"
         style="fill:#6b6e70;fill-opacity:1">
        <use
           id="use1091"
           y="374.6445"
           x="171.99364"
           xlink:href="#glyph1-4"
           width="100%"
           height="100%" />
      </g>
      <g
         id="g1179"
         style="fill:#6b6e70;fill-opacity:1">
        <use
           id="use1177"
           y="389.01886"
           x="155.28641"
           xlink:href="#glyph1-4"
           width="100%"
           height="100%" />
      </g>
    </g>
  </g>
</svg>
