<svg xmlns="http://www.w3.org/2000/svg" width="1920" height="600"><path d="M941,160L1056,110L862,-21Z" fill="#eeeeee" stroke="#eeeeee" stroke-width="1.51"/><path d="M1056,110L1135,-94L862,-21Z" fill="#f1f1f1" stroke="#f1f1f1" stroke-width="1.51"/><path d="M862,-21L714,12L941,160Z" fill="#f1f1f1" stroke="#f1f1f1" stroke-width="1.51"/><path d="M710,-315L714,12L862,-21Z" fill="#f4f4f4" stroke="#f4f4f4" stroke-width="1.51"/><path d="M1135,-94L1039,-238L862,-21Z" fill="#f1f1f1" stroke="#f1f1f1" stroke-width="1.51"/><path d="M1135,-94L1283,-215L1039,-238Z" fill="#efefef" stroke="#efefef" stroke-width="1.51"/><path d="M1056,110L1247,-94L1135,-94Z" fill="#efefef" stroke="#efefef" stroke-width="1.51"/><path d="M941,160L1218,272L1056,110Z" fill="#e8e8e8" stroke="#e8e8e8" stroke-width="1.51"/><path d="M714,12L713,271L941,160Z" fill="#ededed" stroke="#ededed" stroke-width="1.51"/><path d="M1056,110L1218,272L1247,-94Z" fill="#ebebeb" stroke="#ebebeb" stroke-width="1.51"/><path d="M1037,453L1218,272L941,160Z" fill="#e3e3e3" stroke="#e3e3e3" stroke-width="1.51"/><path d="M1039,-238L862,-334L862,-21Z" fill="#f2f2f2" stroke="#f2f2f2" stroke-width="1.51"/><path d="M1247,-94L1283,-215L1135,-94Z" fill="#eeeeee" stroke="#eeeeee" stroke-width="1.51"/><path d="M1039,-238L1283,-215L862,-334Z" fill="#f0f0f0" stroke="#f0f0f0" stroke-width="1.51"/><path d="M1532,-193L1283,-215L1247,-94Z" fill="#ececec" stroke="#ececec" stroke-width="1.51"/><path d="M758,448L1037,453L941,160Z" fill="#e3e3e3" stroke="#e3e3e3" stroke-width="1.51"/><path d="M862,-334L710,-315L862,-21Z" fill="#f4f4f4" stroke="#f4f4f4" stroke-width="1.51"/><path d="M714,12L474,53L713,271Z" fill="#f1f1f1" stroke="#f1f1f1" stroke-width="1.51"/><path d="M713,271L758,448L941,160Z" fill="#e7e7e7" stroke="#e7e7e7" stroke-width="1.51"/><path d="M710,-315L474,53L714,12Z" fill="#f6f6f6" stroke="#f6f6f6" stroke-width="1.51"/><path d="M713,271L547,395L758,448Z" fill="#e6e6e6" stroke="#e6e6e6" stroke-width="1.51"/><path d="M1037,453L1116,538L1218,272Z" fill="#dddddd" stroke="#dddddd" stroke-width="1.51"/><path d="M782,659L1116,538L1037,453Z" fill="#d9d9d9" stroke="#d9d9d9" stroke-width="1.51"/><path d="M758,448L782,659L1037,453Z" fill="#dcdcdc" stroke="#dcdcdc" stroke-width="1.51"/><path d="M448,223L547,395L713,271Z" fill="#eaeaea" stroke="#eaeaea" stroke-width="1.51"/><path d="M474,53L448,223L713,271Z" fill="#efefef" stroke="#efefef" stroke-width="1.51"/><path d="M1218,272L1533,9L1247,-94Z" fill="#eaeaea" stroke="#eaeaea" stroke-width="1.51"/><path d="M1584,259L1533,9L1218,272Z" fill="#e3e3e3" stroke="#e3e3e3" stroke-width="1.51"/><path d="M1116,538L1349,496L1218,272Z" fill="#dbdbdb" stroke="#dbdbdb" stroke-width="1.51"/><path d="M448,223L433,341L547,395Z" fill="#eaeaea" stroke="#eaeaea" stroke-width="1.51"/><path d="M1283,-215L1802,-255L862,-334Z" fill="#ededed" stroke="#ededed" stroke-width="1.51"/><path d="M1533,9L1532,-193L1247,-94Z" fill="#ebebeb" stroke="#ebebeb" stroke-width="1.51"/><path d="M596,604L782,659L758,448Z" fill="#dcdcdc" stroke="#dcdcdc" stroke-width="1.51"/><path d="M1116,538L1375,678L1349,496Z" fill="#d4d4d4" stroke="#d4d4d4" stroke-width="1.51"/><path d="M596,604L758,448L547,395Z" fill="#e1e1e1" stroke="#e1e1e1" stroke-width="1.51"/><path d="M710,-315L421,-337L474,53Z" fill="#f7f7f7" stroke="#f7f7f7" stroke-width="1.51"/><path d="M474,53L185,113L448,223Z" fill="#f4f4f4" stroke="#f4f4f4" stroke-width="1.51"/><path d="M448,223L193,393L433,341Z" fill="#ececec" stroke="#ececec" stroke-width="1.51"/><path d="M862,-334L421,-337L710,-315Z" fill="#f6f6f6" stroke="#f6f6f6" stroke-width="1.51"/><path d="M1349,496L1584,259L1218,272Z" fill="#dddddd" stroke="#dddddd" stroke-width="1.51"/><path d="M1533,9L1734,-20L1532,-193Z" fill="#e9e9e9" stroke="#e9e9e9" stroke-width="1.51"/><path d="M333,713L596,604L547,395Z" fill="#dfdfdf" stroke="#dfdfdf" stroke-width="1.51"/><path d="M275,-220L264,-21L474,53Z" fill="#fafafa" stroke="#fafafa" stroke-width="1.51"/><path d="M421,-337L275,-220L474,53Z" fill="#f9f9f9" stroke="#f9f9f9" stroke-width="1.51"/><path d="M1349,496L1560,468L1584,259Z" fill="#d8d8d8" stroke="#d8d8d8" stroke-width="1.51"/><path d="M1533,549L1560,468L1349,496Z" fill="#d5d5d5" stroke="#d5d5d5" stroke-width="1.51"/><path d="M1229,797L1375,678L1116,538Z" fill="#d4d4d4" stroke="#d4d4d4" stroke-width="1.51"/><path d="M1375,678L1533,549L1349,496Z" fill="#d2d2d2" stroke="#d2d2d2" stroke-width="1.51"/><path d="M1824,350L1584,259L1560,468Z" fill="#d9d9d9" stroke="#d9d9d9" stroke-width="1.51"/><path d="M1824,350L1724,132L1584,259Z" fill="#dddddd" stroke="#dddddd" stroke-width="1.51"/><path d="M1584,259L1724,132L1533,9Z" fill="#e3e3e3" stroke="#e3e3e3" stroke-width="1.51"/><path d="M430,822L610,763L596,604Z" fill="#dddddd" stroke="#dddddd" stroke-width="1.51"/><path d="M264,-21L185,113L474,53Z" fill="#f9f9f9" stroke="#f9f9f9" stroke-width="1.51"/><path d="M-52,101L185,113L-79,-57Z" fill="#fcfcfc" stroke="#fcfcfc" stroke-width="1.51"/><path d="M1724,132L1734,-20L1533,9Z" fill="#e6e6e6" stroke="#e6e6e6" stroke-width="1.51"/><path d="M1113,905L1229,797L1116,538Z" fill="#d5d5d5" stroke="#d5d5d5" stroke-width="1.51"/><path d="M596,604L610,763L782,659Z" fill="#dcdcdc" stroke="#dcdcdc" stroke-width="1.51"/><path d="M333,713L547,395L433,341Z" fill="#e4e4e4" stroke="#e4e4e4" stroke-width="1.51"/><path d="M1113,905L1116,538L782,659Z" fill="#d7d7d7" stroke="#d7d7d7" stroke-width="1.51"/><path d="M185,113L193,393L448,223Z" fill="#f0f0f0" stroke="#f0f0f0" stroke-width="1.51"/><path d="M1472,923L1533,549L1375,678Z" fill="#d1d1d1" stroke="#d1d1d1" stroke-width="1.51"/><path d="M1764,613L1560,468L1533,549Z" fill="#d1d1d1" stroke="#d1d1d1" stroke-width="1.51"/><path d="M781,946L1113,905L782,659Z" fill="#d9d9d9" stroke="#d9d9d9" stroke-width="1.51"/><path d="M1532,-193L1802,-255L1283,-215Z" fill="#eaeaea" stroke="#eaeaea" stroke-width="1.51"/><path d="M1734,-20L1802,-255L1532,-193Z" fill="#e8e8e8" stroke="#e8e8e8" stroke-width="1.51"/><path d="M1898,-10L1802,-255L1734,-20Z" fill="#e6e6e6" stroke="#e6e6e6" stroke-width="1.51"/><path d="M610,763L781,946L782,659Z" fill="#dbdbdb" stroke="#dbdbdb" stroke-width="1.51"/><path d="M193,393L333,713L433,341Z" fill="#e5e5e5" stroke="#e5e5e5" stroke-width="1.51"/><path d="M1764,613L1824,350L1560,468Z" fill="#d2d2d2" stroke="#d2d2d2" stroke-width="1.51"/><path d="M1724,132L1898,-10L1734,-20Z" fill="#e5e5e5" stroke="#e5e5e5" stroke-width="1.51"/><path d="M1764,613L1533,549L1772,772Z" fill="#cecece" stroke="#cecece" stroke-width="1.51"/><path d="M430,822L781,946L610,763Z" fill="#dcdcdc" stroke="#dcdcdc" stroke-width="1.51"/><path d="M1885,280L1898,-10L1724,132Z" fill="#e0e0e0" stroke="#e0e0e0" stroke-width="1.51"/><path d="M333,713L430,822L596,604Z" fill="#dfdfdf" stroke="#dfdfdf" stroke-width="1.51"/><path d="M1824,350L1885,280L1724,132Z" fill="#dbdbdb" stroke="#dbdbdb" stroke-width="1.51"/><path d="M1824,350L1984,465L1885,280Z" fill="#d5d5d5" stroke="#d5d5d5" stroke-width="1.51"/><path d="M1472,923L1375,678L1229,797Z" fill="#d2d2d2" stroke="#d2d2d2" stroke-width="1.51"/><path d="M333,713L207,898L430,822Z" fill="#e0e0e0" stroke="#e0e0e0" stroke-width="1.51"/><path d="M193,393L194,679L333,713Z" fill="#e1e1e1" stroke="#e1e1e1" stroke-width="1.51"/><path d="M32,647L194,679L193,393Z" fill="#e4e4e4" stroke="#e4e4e4" stroke-width="1.51"/><path d="M185,113L-52,101L193,393Z" fill="#f4f4f4" stroke="#f4f4f4" stroke-width="1.51"/><path d="M-79,-57L185,113L264,-21Z" fill="#fdfdfd" stroke="#fdfdfd" stroke-width="1.51"/><path d="M781,946L1472,923L1113,905Z" fill="#d5d5d5" stroke="#d5d5d5" stroke-width="1.51"/><path d="M1113,905L1472,923L1229,797Z" fill="#d3d3d3" stroke="#d3d3d3" stroke-width="1.51"/><path d="M275,-220L-79,-57L264,-21Z" fill="#fdfdfd" stroke="#fdfdfd" stroke-width="1.51"/><path d="M-96,-307L-79,-57L275,-220Z" fill="#fefefe" stroke="#fefefe" stroke-width="1.51"/><path d="M1772,772L1870,598L1764,613Z" fill="#cccccc" stroke="#cccccc" stroke-width="1.51"/><path d="M1764,613L1870,598L1824,350Z" fill="#d0d0d0" stroke="#d0d0d0" stroke-width="1.51"/><path d="M1472,923L1772,772L1533,549Z" fill="#cfcfcf" stroke="#cfcfcf" stroke-width="1.51"/><path d="M2100,-193L2029,-198L1898,-10Z" fill="#e5e5e5" stroke="#e5e5e5" stroke-width="1.51"/><path d="M1898,-10L2029,-198L1802,-255Z" fill="#e5e5e5" stroke="#e5e5e5" stroke-width="1.51"/><path d="M2089,206L1898,-10L1885,280Z" fill="#dedede" stroke="#dedede" stroke-width="1.51"/><path d="M-123,465L32,647L193,393Z" fill="#e8e8e8" stroke="#e8e8e8" stroke-width="1.51"/><path d="M194,679L207,898L333,713Z" fill="#e1e1e1" stroke="#e1e1e1" stroke-width="1.51"/><path d="M-123,465L193,393L-52,101Z" fill="#f1f1f1" stroke="#f1f1f1" stroke-width="1.51"/><path d="M1870,598L1984,465L1824,350Z" fill="#d1d1d1" stroke="#d1d1d1" stroke-width="1.51"/><path d="M2228,339L1984,465L2223,706Z" fill="#cfcfcf" stroke="#cfcfcf" stroke-width="1.51"/><path d="M421,-337L-96,-307L275,-220Z" fill="#fcfcfc" stroke="#fcfcfc" stroke-width="1.51"/><path d="M-48,809L207,898L194,679Z" fill="#e3e3e3" stroke="#e3e3e3" stroke-width="1.51"/><path d="M430,822L207,898L781,946Z" fill="#dedede" stroke="#dedede" stroke-width="1.51"/><path d="M1984,465L2089,206L1885,280Z" fill="#d7d7d7" stroke="#d7d7d7" stroke-width="1.51"/><path d="M32,647L-48,809L194,679Z" fill="#e4e4e4" stroke="#e4e4e4" stroke-width="1.51"/><path d="M-260,173L-123,465L-52,101Z" fill="#f4f4f4" stroke="#f4f4f4" stroke-width="1.51"/><path d="M-260,173L-52,101L-79,-57Z" fill="#fcfcfc" stroke="#fcfcfc" stroke-width="1.51"/><path d="M2243,-23L2100,-193L1898,-10Z" fill="#e5e5e5" stroke="#e5e5e5" stroke-width="1.51"/><path d="M2029,-198L2100,-193L1802,-255Z" fill="#e5e5e5" stroke="#e5e5e5" stroke-width="1.51"/><path d="M-337,-50L-260,173L-79,-57Z" fill="#fefefe" stroke="#fefefe" stroke-width="1.51"/><path d="M-96,-307L-267,-250L-79,-57Z" fill="#ffffff" stroke="#ffffff" stroke-width="1.51"/><path d="M-322,625L32,647L-123,465Z" fill="#e6e6e6" stroke="#e6e6e6" stroke-width="1.51"/><path d="M-322,625L-48,809L32,647Z" fill="#e5e5e5" stroke="#e5e5e5" stroke-width="1.51"/><path d="M-260,173L-249,423L-123,465Z" fill="#efefef" stroke="#efefef" stroke-width="1.51"/><path d="M2089,206L2243,-23L1898,-10Z" fill="#e2e2e2" stroke="#e2e2e2" stroke-width="1.51"/><path d="M2228,339L2243,-23L2089,206Z" fill="#dddddd" stroke="#dddddd" stroke-width="1.51"/><path d="M-267,-250L-337,-50L-79,-57Z" fill="#ffffff" stroke="#ffffff" stroke-width="1.51"/><path d="M-260,173L-322,625L-249,423Z" fill="#ededed" stroke="#ededed" stroke-width="1.51"/><path d="M2223,706L1984,465L1870,598Z" fill="#cbcbcb" stroke="#cbcbcb" stroke-width="1.51"/><path d="M1984,465L2228,339L2089,206Z" fill="#d6d6d6" stroke="#d6d6d6" stroke-width="1.51"/><path d="M1772,772L2041,829L1870,598Z" fill="#cbcbcb" stroke="#cbcbcb" stroke-width="1.51"/><path d="M2146,947L2041,829L1772,772Z" fill="#cbcbcb" stroke="#cbcbcb" stroke-width="1.51"/><path d="M-337,-50L-322,625L-260,173Z" fill="#f4f4f4" stroke="#f4f4f4" stroke-width="1.51"/><path d="M-249,423L-322,625L-123,465Z" fill="#e9e9e9" stroke="#e9e9e9" stroke-width="1.51"/><path d="M2041,829L2223,706L1870,598Z" fill="#cbcbcb" stroke="#cbcbcb" stroke-width="1.51"/><path d="M2228,339L2223,706L2243,-23Z" fill="#d6d6d6" stroke="#d6d6d6" stroke-width="1.51"/><path d="M-322,625L-300,771L-48,809Z" fill="#e5e5e5" stroke="#e5e5e5" stroke-width="1.51"/><path d="M-48,809L-300,771L207,898Z" fill="#e5e5e5" stroke="#e5e5e5" stroke-width="1.51"/><path d="M2041,829L2146,947L2223,706Z" fill="#cbcbcb" stroke="#cbcbcb" stroke-width="1.51"/><path d="M1472,923L2146,947L1772,772Z" fill="#cccccc" stroke="#cccccc" stroke-width="1.51"/><path d="M781,946L2146,947L1472,923Z" fill="#d1d1d1" stroke="#d1d1d1" stroke-width="1.51"/></svg>