<?xml version="1.0" encoding="UTF-8" standalone="no"?>
<!-- Generator: Adobe Illustrator 19.0.0, SVG Export Plug-In . SVG Version: 6.00 Build 0)  -->

<svg
   xmlns:dc="http://purl.org/dc/elements/1.1/"
   xmlns:cc="http://creativecommons.org/ns#"
   xmlns:rdf="http://www.w3.org/1999/02/22-rdf-syntax-ns#"
   xmlns:svg="http://www.w3.org/2000/svg"
   xmlns="http://www.w3.org/2000/svg"
   xmlns:sodipodi="http://sodipodi.sourceforge.net/DTD/sodipodi-0.dtd"
   xmlns:inkscape="http://www.inkscape.org/namespaces/inkscape"
   version="1.1"
   id="Capa_1"
   x="0px"
   y="0px"
   viewBox="0 0 467.16202 511.99899"
   xml:space="preserve"
   width="467.16202"
   height="511.99899"
   sodipodi:docname="Quotation.svg"
   inkscape:version="0.92.3 (2405546, 2018-03-11)"><metadata
   id="metadata31"><rdf:RDF><cc:Work
       rdf:about=""><dc:format>image/svg+xml</dc:format><dc:type
         rdf:resource="http://purl.org/dc/dcmitype/StillImage" /><dc:title /></cc:Work></rdf:RDF></metadata><defs
   id="defs29" /><sodipodi:namedview
   pagecolor="#ffffff"
   bordercolor="#666666"
   borderopacity="1"
   objecttolerance="10"
   gridtolerance="10"
   guidetolerance="10"
   inkscape:pageopacity="0"
   inkscape:pageshadow="2"
   inkscape:window-width="1920"
   inkscape:window-height="1017"
   id="namedview27"
   showgrid="false"
   fit-margin-top="0"
   fit-margin-left="0"
   fit-margin-right="0"
   fit-margin-bottom="0"
   inkscape:zoom="0.921875"
   inkscape:cx="-26.250204"
   inkscape:cy="225.97925"
   inkscape:window-x="-8"
   inkscape:window-y="-8"
   inkscape:window-maximized="1"
   inkscape:current-layer="g24" />
<g
   id="g24"
   transform="matrix(0.96495633,0,0,1,8.2470848,0)">
	<path
   d="M 278.38466,471.73225 H 56.841349 c -5.377898,0 -9.752811,-3.96548 -9.752811,-8.84007 V 123.50149 c 0,-3.79685 -3.395184,-6.87337 -7.583049,-6.87337 -4.187864,0 -7.583048,3.07652 -7.583048,6.87337 v 339.39069 c 0,12.45455 11.178424,22.58682 24.918908,22.58682 H 278.38466 c 4.18786,0 7.58305,-3.07652 7.58305,-6.87337 0,-3.79685 -3.39519,-6.87338 -7.58305,-6.87338 z"
   id="path2"
   inkscape:connector-curvature="0"
   style="stroke-width:0.96259946" />
	<path
   d="m 39.444187,70.247996 c 4.853916,0 8.000671,-3.114165 8.000671,-7.416604 V 25.594475 c 0,-5.522658 7.126462,-10.017216 13.359679,-10.017216 H 413.61588 c 6.23204,0 11.30393,4.493519 11.30393,10.017216 V 308.31653 c 0,4.30244 3.93516,7.78863 8.78907,7.78863 4.85392,0 8.78909,-3.48619 8.78909,-7.78863 V 25.594475 C 442.49797,11.481479 429.54169,0 413.61588,0 H 60.804537 C 44.87872,0 31.922441,11.481479 31.922441,25.594475 v 37.236917 c 0,4.302439 2.667829,7.416604 7.521746,7.416604 z"
   id="path4"
   inkscape:connector-curvature="0"
   style="stroke-width:1.10316634"
   sodipodi:nodetypes="sssssssssssssss" />
	<path
   d="m 391.32648,217.667 c 0,-4.143 -4.30325,-7.5 -9.6112,-7.5 H 106.2172 c -5.30794,0 -9.6112,3.357 -9.6112,7.5 0,4.143 4.30326,7.5 9.6112,7.5 h 275.49808 c 5.30795,0 9.6112,-3.357 9.6112,-7.5 z"
   id="path6"
   inkscape:connector-curvature="0"
   style="stroke-width:1.13203073" />
	<path
   d="M 104.106,288.277 H 153 c 4.142,0 7.5,-3.357 7.5,-7.5 0,-4.143 -3.358,-7.5 -7.5,-7.5 h -48.894 c -4.142,0 -7.5,3.357 -7.5,7.5 0,4.143 3.358,7.5 7.5,7.5 z"
   id="path8"
   inkscape:connector-curvature="0" />
	<path
   d="M 104.106,351.389 H 146 c 4.142,0 7.5,-3.357 7.5,-7.5 0,-4.143 -3.358,-7.5 -7.5,-7.5 h -41.894 c -4.142,0 -7.5,3.357 -7.5,7.5 0,4.143 3.358,7.5 7.5,7.5 z"
   id="path10"
   inkscape:connector-curvature="0" />
	<path
   d="m 104.106,414.5 h 155.575 c 4.142,0 7.5,-3.357 7.5,-7.5 0,-4.143 -3.358,-7.5 -7.5,-7.5 H 104.106 c -4.142,0 -7.5,3.357 -7.5,7.5 0,4.143 3.358,7.5 7.5,7.5 z"
   id="path12"
   inkscape:connector-curvature="0" />
	<path
   d="m 169.45931,128.37273 c -12.066,0 -21.882,9.816 -21.882,21.882 0,12.066 9.816,21.883 21.882,21.883 12.066,0 21.882,-9.816 21.882,-21.883 0,-1.236 -0.108,-2.448 -0.307,-3.629 l 20.838,-11.825 c 3.819,3.249 8.761,5.215 14.157,5.215 5.395,0 10.337,-1.966 14.156,-5.215 l 20.839,11.825 c -0.198,1.181 -0.306,2.393 -0.306,3.629 0,12.066 9.816,21.883 21.882,21.883 12.066,0 21.882,-9.816 21.882,-21.883 0,-4.574 -1.413,-8.824 -3.823,-12.339 l 32.643,-45.618002 c 1.869,0.521 3.836,0.806 5.869,0.806 12.066,0 21.882,-9.816 21.882,-21.882 0,-12.066 -9.816,-21.883 -21.882,-21.883 -12.066,0 -21.882,9.816 -21.882,21.883 0,4.574 1.413,8.823 3.822,12.338 l -32.644,45.619002 c -1.869,-0.521 -3.835,-0.805 -5.867,-0.805 -5.395,0 -10.337,1.967 -14.156,5.215 l -20.838,-11.825 c 0.198,-1.181 0.307,-2.392 0.307,-3.629 0,-12.066 -9.816,-21.883002 -21.882,-21.883002 -12.066,0 -21.883,9.816002 -21.883,21.883002 0,1.236 0.108,2.448 0.307,3.629 l -20.838,11.825 c -3.821,-3.249 -8.763,-5.216 -14.158,-5.216 z m 0,28.765 c -3.795,0 -6.882,-3.088 -6.882,-6.883 0,-3.795 3.087,-6.882 6.882,-6.882 3.795,0 6.882,3.087 6.882,6.882 0,3.795 -3.087,6.883 -6.882,6.883 z m 169.712,-92.799002 c 3.795,0 6.882,3.088 6.882,6.883 0,3.795 -3.087,6.882 -6.882,6.882 -3.795,0 -6.882,-3.087 -6.882,-6.882 0,-3.795 3.087,-6.883 6.882,-6.883 z m -56.571,79.034002 c 3.795,0 6.882,3.087 6.882,6.882 0,3.795 -3.087,6.883 -6.882,6.883 -3.795,0 -6.883,-3.088 -6.883,-6.883 0,-3.795 3.088,-6.882 6.883,-6.882 z m -56.57,-32.121 c 3.795,0 6.882,3.088 6.882,6.883 0,3.795 -3.087,6.882 -6.882,6.882 -3.795,0 -6.883,-3.087 -6.883,-6.882 0,-3.795 3.087,-6.883 6.883,-6.883 z"
   id="path14"
   inkscape:connector-curvature="0" />
	<path
   d="m 379.276,363.793 c -28.619,0 -51.902,23.283 -51.902,51.902 0,28.619 23.283,51.902 51.902,51.902 28.619,0 51.902,-23.283 51.902,-51.902 0,-28.619 -23.283,-51.902 -51.902,-51.902 z m 0,88.805 c -20.348,0 -36.902,-16.555 -36.902,-36.902 0,-20.347 16.554,-36.902 36.902,-36.902 20.348,0 36.902,16.555 36.902,36.902 0,20.347 -16.554,36.902 -36.902,36.902 z"
   id="path16"
   inkscape:connector-curvature="0" />
	<path
   d="m 469.216,391.983 -16.099,-2.464 c -0.909,-2.565 -1.95,-5.08 -3.117,-7.531 l 9.64,-13.123 c 2.193,-2.985 1.878,-7.125 -0.741,-9.744 l -23.048,-23.048 c -2.619,-2.617 -6.758,-2.933 -9.743,-0.741 l -13.124,9.64 c -2.45,-1.167 -4.965,-2.208 -7.531,-3.117 l -2.464,-16.099 c -0.561,-3.661 -3.709,-6.365 -7.414,-6.365 H 362.98 c -3.704,0 -6.853,2.704 -7.414,6.365 l -2.464,16.099 c -2.566,0.909 -5.081,1.95 -7.531,3.117 l -13.124,-9.64 c -2.985,-2.191 -7.125,-1.876 -9.743,0.741 l -23.048,23.048 c -2.619,2.619 -2.934,6.759 -0.741,9.744 l 9.64,13.123 c -1.167,2.451 -2.208,4.966 -3.117,7.531 l -16.099,2.464 c -3.661,0.561 -6.365,3.71 -6.365,7.414 v 32.595 c 0,3.704 2.704,6.854 6.365,7.414 l 16.099,2.464 c 0.909,2.566 1.95,5.081 3.117,7.531 l -9.64,13.125 c -2.192,2.984 -1.877,7.124 0.742,9.743 l 23.048,23.048 c 2.619,2.619 6.758,2.933 9.743,0.741 l 13.124,-9.64 c 2.45,1.167 4.965,2.208 7.531,3.117 l 2.464,16.099 c 0.561,3.661 3.709,6.365 7.414,6.365 h 32.595 c 3.704,0 6.853,-2.704 7.414,-6.365 l 2.464,-16.099 c 2.566,-0.909 5.082,-1.95 7.531,-3.117 l 13.124,9.64 c 2.986,2.193 7.125,1.876 9.743,-0.741 L 458.9,472.269 c 2.619,-2.619 2.934,-6.759 0.742,-9.743 L 450,449.401 c 1.167,-2.45 2.208,-4.965 3.117,-7.531 l 16.099,-2.464 c 3.661,-0.561 6.365,-3.71 6.365,-7.414 v -32.595 c 0,-3.704 -2.704,-6.853 -6.365,-7.414 z m -8.635,33.57 -14.325,2.192 c -2.898,0.444 -5.273,2.536 -6.078,5.356 -1.329,4.658 -3.188,9.148 -5.526,13.348 -1.427,2.563 -1.229,5.724 0.508,8.088 l 8.578,11.679 -13.942,13.941 -11.678,-8.578 c -2.365,-1.736 -5.526,-1.935 -8.089,-0.508 -4.197,2.338 -8.688,4.197 -13.347,5.526 -2.82,0.804 -4.912,3.179 -5.356,6.077 L 389.134,497 h -19.716 l -2.193,-14.325 c -0.444,-2.898 -2.536,-5.272 -5.356,-6.077 -4.66,-1.33 -9.15,-3.188 -13.347,-5.526 -2.564,-1.427 -5.725,-1.229 -8.089,0.508 l -11.678,8.578 -13.941,-13.941 8.578,-11.679 c 1.737,-2.364 1.936,-5.524 0.508,-8.088 -2.338,-4.199 -4.197,-8.689 -5.526,-13.348 -0.805,-2.82 -3.179,-4.912 -6.078,-5.356 l -14.325,-2.192 v -19.716 l 14.325,-2.192 c 2.898,-0.444 5.273,-2.536 6.078,-5.356 1.328,-4.656 3.188,-9.147 5.526,-13.349 1.427,-2.563 1.228,-5.723 -0.509,-8.088 l -8.577,-11.677 13.941,-13.941 11.678,8.578 c 2.365,1.735 5.524,1.935 8.088,0.508 4.198,-2.338 8.689,-4.197 13.348,-5.526 2.82,-0.805 4.912,-3.179 5.356,-6.077 l 2.193,-14.325 h 19.716 l 2.193,14.325 c 0.444,2.898 2.536,5.273 5.356,6.077 4.659,1.329 9.15,3.188 13.347,5.526 2.564,1.427 5.725,1.229 8.089,-0.508 l 11.678,-8.578 13.941,13.941 -8.577,11.677 c -1.737,2.365 -1.936,5.525 -0.509,8.088 2.339,4.201 4.198,8.692 5.526,13.349 0.805,2.82 3.179,4.912 6.078,5.356 l 14.325,2.192 z"
   id="path18"
   inkscape:connector-curvature="0" />
	<path
   d="m 303.064,335.212 c 3.241,-0.905 5.482,-3.858 5.482,-7.224 V 298.97 c 0,-3.365 -2.241,-6.318 -5.482,-7.224 L 290.726,288.3 c -0.75,-1.611 -1.572,-3.193 -2.46,-4.732 0,-10e-4 0,-10e-4 0,-10e-4 -0.889,-1.539 -1.848,-3.043 -2.869,-4.498 l 3.184,-12.409 c 0.836,-3.26 -0.601,-6.677 -3.515,-8.359 l -25.129,-14.508 c -2.915,-1.684 -6.592,-1.218 -8.997,1.136 l -9.155,8.963 c -3.556,-0.321 -7.123,-0.325 -10.667,-0.008 l -9.146,-8.955 c -2.404,-2.354 -6.083,-2.819 -8.997,-1.136 l -25.129,14.508 c -2.914,1.683 -4.351,5.1 -3.515,8.359 l 3.182,12.399 c -2.046,2.912 -3.827,6.002 -5.326,9.241 l -12.339,3.446 c -3.241,0.905 -5.482,3.858 -5.482,7.224 v 29.018 c 0,3.365 2.241,6.318 5.482,7.224 l 12.338,3.446 c 0.75,1.611 1.572,3.194 2.461,4.733 0.889,1.539 1.848,3.043 2.869,4.498 l -3.184,12.409 c -0.836,3.26 0.601,6.677 3.515,8.359 l 25.129,14.508 c 2.915,1.684 6.593,1.22 8.997,-1.136 l 9.155,-8.962 c 3.554,0.319 7.122,0.324 10.666,0.007 l 9.147,8.955 c 1.439,1.409 3.334,2.141 5.249,2.141 1.284,0 2.578,-0.329 3.748,-1.005 l 25.129,-14.508 c 2.914,-1.683 4.351,-5.1 3.515,-8.359 L 285.4,347.9 c 2.046,-2.913 3.827,-6.003 5.326,-9.242 z m -19.846,-10.031 c -2.278,0.637 -4.123,2.31 -4.977,4.516 -1.667,4.307 -3.972,8.305 -6.848,11.884 -1.48,1.842 -2.006,4.273 -1.419,6.563 l 2.661,10.371 -15.27,8.816 -7.652,-7.491 c -1.688,-1.654 -4.058,-2.412 -6.394,-2.053 -4.536,0.702 -9.15,0.7 -13.713,-0.01 -2.337,-0.362 -4.708,0.397 -6.398,2.052 l -7.663,7.502 -15.271,-8.816 2.663,-10.377 c 0.587,-2.286 0.063,-4.716 -1.414,-6.557 -1.429,-1.781 -2.736,-3.695 -3.887,-5.688 -1.151,-1.995 -2.155,-4.085 -2.982,-6.211 -0.856,-2.2 -2.698,-3.869 -4.972,-4.504 l -10.318,-2.882 v -17.633 l 10.329,-2.885 c 2.278,-0.637 4.123,-2.31 4.977,-4.516 1.667,-4.307 3.972,-8.305 6.847,-11.882 1.481,-1.842 2.007,-4.274 1.419,-6.563 l -2.662,-10.372 15.271,-8.816 7.651,7.491 c 1.689,1.654 4.057,2.411 6.395,2.053 4.534,-0.702 9.148,-0.698 13.714,0.011 2.338,0.361 4.708,-0.396 6.398,-2.052 l 7.664,-7.503 15.271,8.816 -2.663,10.377 c -0.587,2.286 -0.063,4.716 1.414,6.557 1.428,1.781 2.736,3.694 3.887,5.688 1.151,1.995 2.155,4.085 2.982,6.211 0.856,2.2 2.698,3.869 4.972,4.504 l 10.318,2.882 v 17.633 z"
   id="path20"
   inkscape:connector-curvature="0" />
	<path
   d="m 245.9,278.229 c -9.417,-2.521 -19.25,-1.229 -27.692,3.646 -17.426,10.061 -23.418,32.423 -13.357,49.851 4.874,8.441 12.743,14.48 22.159,17.003 3.144,0.843 6.333,1.259 9.503,1.259 6.323,0 12.565,-1.659 18.188,-4.905 8.442,-4.873 14.48,-12.743 17.003,-22.158 2.523,-9.415 1.229,-19.25 -3.646,-27.691 -4.872,-8.443 -12.742,-14.481 -22.158,-17.005 z m 11.316,40.813 c -1.486,5.546 -5.042,10.181 -10.014,13.051 -4.972,2.87 -10.764,3.634 -16.31,2.147 -5.545,-1.485 -10.18,-5.042 -13.05,-10.014 -5.925,-10.264 -2.396,-23.435 7.867,-29.36 3.312,-1.912 6.988,-2.89 10.712,-2.89 1.866,0 3.746,0.246 5.597,0.742 5.545,1.485 10.18,5.042 13.051,10.015 2.87,4.972 3.633,10.764 2.147,16.309 z"
   id="path22"
   inkscape:connector-curvature="0" />
<path
   style="stroke-width:1.09987438"
   d="M 323.89375,284.02045 H 383.042 c 5.01068,0 9.07292,-3.357 9.07292,-7.5 0,-4.143 -4.06224,-7.5 -9.07292,-7.5 h -59.14825 c -5.01067,0 -9.07292,3.357 -9.07292,7.5 0,4.143 4.06225,7.5 9.07292,7.5 z"
   id="path8-6"
   inkscape:connector-curvature="0" /></g>















</svg>