{"accessors":[{"bufferView":0,"componentType":5126,"count":8,"max":[10.0,10.0,10.0],"min":[0.0,0.0,0.0],"type":"VEC3"},{"bufferView":1,"componentType":5123,"count":36,"type":"SCALAR"}],"asset":{"generator":"MALIEV issue-153 fixture generator v1","version":"2.0"},"bufferViews":[{"buffer":0,"byteLength":96,"byteOffset":0,"target":34962},{"buffer":0,"byteLength":72,"byteOffset":96,"target":34963}],"buffers":[{"byteLength":168,"uri":"data:application/octet-stream;base64,"}],"meshes":[{"primitives":[{"attributes":{"POSITION":0},"indices":1,"mode":4}]}],"nodes":[{"mesh":0,"name":"cube-10mm"}],"scene":0,"scenes":[{"nodes":[0]}]}
